<svg xmlns="http://www.w3.org/2000/svg" width="387" height="97">
         <defs>
            <style type="text/css">
    @namespace "http://www.w3.org/2000/svg";
    .line                 {fill: none; stroke: #332900; stroke-width: 1;}
    .bold-line            {stroke: #141000; shape-rendering: crispEdges; stroke-width: 2;}
    .thin-line            {stroke: #1F1800; shape-rendering: crispEdges}
    .filled               {fill: #332900; stroke: none;}
    text.terminal         {font-family: Verdana, Sans-serif;
                            font-size: 12px;
                            fill: #141000;
                            font-weight: bold;
                          }
    text.nonterminal      {font-family: Verdana, Sans-serif;
                            font-size: 12px;
                            fill: #1A1400;
                            font-weight: normal;
                          }
    text.regexp           {font-family: Verdana, Sans-serif;
                            font-size: 12px;
                            fill: #1F1800;
                            font-weight: normal;
                          }
    rect, circle, polygon {fill: #332900; stroke: #332900;}
    rect.terminal         {fill: #FFDB4D; stroke: #332900; stroke-width: 1;}
    rect.nonterminal      {fill: #FFEC9E; stroke: #332900; stroke-width: 1;}
    rect.text             {fill: none; stroke: none;}
    polygon.regexp        {fill: #FFF4C7; stroke: #332900; stroke-width: 1;}
  </style>
         </defs>
         <polygon points="9 61 1 57 1 65"/>
         <polygon points="17 61 9 57 9 65"/><a xmlns:xlink="http://www.w3.org/1999/xlink" xlink:href="#IDENT" xlink:title="IDENT">
            <rect x="31" y="47" width="58" height="32"/>
            <rect x="29" y="45" width="58" height="32" class="nonterminal"/>
            <text class="nonterminal" x="39" y="65">IDENT</text></a><rect x="109" y="47" width="28" height="32" rx="10"/>
         <rect x="107" y="45" width="28" height="32" class="terminal" rx="10"/>
         <text class="terminal" x="117" y="65">{</text><a xmlns:xlink="http://www.w3.org/1999/xlink" xlink:href="#attribute" xlink:title="attribute">
            <rect x="197" y="47" width="74" height="32"/>
            <rect x="195" y="45" width="74" height="32" class="nonterminal"/>
            <text class="nonterminal" x="205" y="65">attribute</text></a><rect x="197" y="3" width="24" height="32" rx="10"/>
         <rect x="195" y="1" width="24" height="32" class="terminal" rx="10"/>
         <text class="terminal" x="205" y="21">,</text>
         <rect x="331" y="47" width="28" height="32" rx="10"/>
         <rect x="329" y="45" width="28" height="32" class="terminal" rx="10"/>
         <text class="terminal" x="339" y="65">}</text>
         <svg:path xmlns:svg="http://www.w3.org/2000/svg" class="line" d="m17 61 h2 m0 0 h10 m58 0 h10 m0 0 h10 m28 0 h10 m40 0 h10 m74 0 h10 m-114 0 l20 0 m-1 0 q-9 0 -9 -10 l0 -24 q0 -10 10 -10 m94 44 l20 0 m-20 0 q10 0 10 -10 l0 -24 q0 -10 -10 -10 m-94 0 h10 m24 0 h10 m0 0 h50 m-134 44 h20 m134 0 h20 m-174 0 q10 0 10 10 m154 0 q0 -10 10 -10 m-164 10 v14 m154 0 v-14 m-154 14 q0 10 10 10 m134 0 q10 0 10 -10 m-144 10 h10 m0 0 h124 m20 -34 h10 m28 0 h10 m3 0 h-3"/>
         <polygon points="377 61 385 57 385 65"/>
         <polygon points="377 61 369 57 369 65"/></svg>
