<svg xmlns="http://www.w3.org/2000/svg" width="683" height="289">
         <defs>
            <style type="text/css">
    @namespace "http://www.w3.org/2000/svg";
    .line                 {fill: none; stroke: #332900; stroke-width: 1;}
    .bold-line            {stroke: #141000; shape-rendering: crispEdges; stroke-width: 2;}
    .thin-line            {stroke: #1F1800; shape-rendering: crispEdges}
    .filled               {fill: #332900; stroke: none;}
    text.terminal         {font-family: Verdana, Sans-serif;
                            font-size: 12px;
                            fill: #141000;
                            font-weight: bold;
                          }
    text.nonterminal      {font-family: Verdana, Sans-serif;
                            font-size: 12px;
                            fill: #1A1400;
                            font-weight: normal;
                          }
    text.regexp           {font-family: Verdana, Sans-serif;
                            font-size: 12px;
                            fill: #1F1800;
                            font-weight: normal;
                          }
    rect, circle, polygon {fill: #332900; stroke: #332900;}
    rect.terminal         {fill: #FFDB4D; stroke: #332900; stroke-width: 1;}
    rect.nonterminal      {fill: #FFEC9E; stroke: #332900; stroke-width: 1;}
    rect.text             {fill: none; stroke: none;}
    polygon.regexp        {fill: #FFF4C7; stroke: #332900; stroke-width: 1;}
  </style>
         </defs>
         <polygon points="9 17 1 13 1 21"/>
         <polygon points="17 17 9 13 9 21"/>
         <rect x="91" y="3" width="48" height="32" rx="10"/>
         <rect x="89" y="1" width="48" height="32" class="terminal" rx="10"/>
         <text class="terminal" x="99" y="21">max</text>
         <rect x="91" y="47" width="56" height="32" rx="10"/>
         <rect x="89" y="45" width="56" height="32" class="terminal" rx="10"/>
         <text class="terminal" x="99" y="65">mean</text>
         <rect x="91" y="91" width="44" height="32" rx="10"/>
         <rect x="89" y="89" width="44" height="32" class="terminal" rx="10"/>
         <text class="terminal" x="99" y="109">min</text>
         <rect x="91" y="135" width="48" height="32" rx="10"/>
         <rect x="89" y="133" width="48" height="32" class="terminal" rx="10"/>
         <text class="terminal" x="99" y="153">sum</text><a xmlns:xlink="http://www.w3.org/1999/xlink" xlink:href="#argument" xlink:title="argument">
            <rect x="187" y="3" width="82" height="32"/>
            <rect x="185" y="1" width="82" height="32" class="nonterminal"/>
            <text class="nonterminal" x="195" y="21">argument</text></a><rect x="71" y="179" width="58" height="32" rx="10"/>
         <rect x="69" y="177" width="58" height="32" class="terminal" rx="10"/>
         <text class="terminal" x="79" y="197">count</text>
         <rect x="309" y="3" width="24" height="32" rx="10"/>
         <rect x="307" y="1" width="24" height="32" class="terminal" rx="10"/>
         <text class="terminal" x="317" y="21">:</text>
         <rect x="373" y="3" width="28" height="32" rx="10"/>
         <rect x="371" y="1" width="28" height="32" class="terminal" rx="10"/>
         <text class="terminal" x="381" y="21">{</text><a xmlns:xlink="http://www.w3.org/1999/xlink" xlink:href="#disjunction" xlink:title="disjunction">
            <rect x="421" y="3" width="88" height="32"/>
            <rect x="419" y="1" width="88" height="32" class="nonterminal"/>
            <text class="nonterminal" x="429" y="21">disjunction</text></a><rect x="529" y="3" width="28" height="32" rx="10"/>
         <rect x="527" y="1" width="28" height="32" class="terminal" rx="10"/>
         <text class="terminal" x="537" y="21">}</text><a xmlns:xlink="http://www.w3.org/1999/xlink" xlink:href="#atom" xlink:title="atom">
            <rect x="373" y="47" width="52" height="32"/>
            <rect x="371" y="45" width="52" height="32" class="nonterminal"/>
            <text class="nonterminal" x="381" y="65">atom</text></a><rect x="51" y="223" width="58" height="32" rx="10"/>
         <rect x="49" y="221" width="58" height="32" class="terminal" rx="10"/>
         <text class="terminal" x="59" y="241">range</text>
         <rect x="129" y="223" width="26" height="32" rx="10"/>
         <rect x="127" y="221" width="26" height="32" class="terminal" rx="10"/>
         <text class="terminal" x="137" y="241">(</text><a xmlns:xlink="http://www.w3.org/1999/xlink" xlink:href="#argument" xlink:title="argument">
            <rect x="175" y="223" width="82" height="32"/>
            <rect x="173" y="221" width="82" height="32" class="nonterminal"/>
            <text class="nonterminal" x="183" y="241">argument</text></a><rect x="277" y="223" width="24" height="32" rx="10"/>
         <rect x="275" y="221" width="24" height="32" class="terminal" rx="10"/>
         <text class="terminal" x="285" y="241">,</text><a xmlns:xlink="http://www.w3.org/1999/xlink" xlink:href="#argument" xlink:title="argument">
            <rect x="321" y="223" width="82" height="32"/>
            <rect x="319" y="221" width="82" height="32" class="nonterminal"/>
            <text class="nonterminal" x="329" y="241">argument</text></a><rect x="443" y="255" width="24" height="32" rx="10"/>
         <rect x="441" y="253" width="24" height="32" class="terminal" rx="10"/>
         <text class="terminal" x="451" y="273">,</text><a xmlns:xlink="http://www.w3.org/1999/xlink" xlink:href="#argument" xlink:title="argument">
            <rect x="487" y="255" width="82" height="32"/>
            <rect x="485" y="253" width="82" height="32" class="nonterminal"/>
            <text class="nonterminal" x="495" y="273">argument</text></a><rect x="609" y="223" width="26" height="32" rx="10"/>
         <rect x="607" y="221" width="26" height="32" class="terminal" rx="10"/>
         <text class="terminal" x="617" y="241">)</text>
         <svg:path xmlns:svg="http://www.w3.org/2000/svg" class="line" d="m17 17 h2 m60 0 h10 m48 0 h10 m0 0 h8 m-96 0 h20 m76 0 h20 m-116 0 q10 0 10 10 m96 0 q0 -10 10 -10 m-106 10 v24 m96 0 v-24 m-96 24 q0 10 10 10 m76 0 q10 0 10 -10 m-86 10 h10 m56 0 h10 m-86 -10 v20 m96 0 v-20 m-96 20 v24 m96 0 v-24 m-96 24 q0 10 10 10 m76 0 q10 0 10 -10 m-86 10 h10 m44 0 h10 m0 0 h12 m-86 -10 v20 m96 0 v-20 m-96 20 v24 m96 0 v-24 m-96 24 q0 10 10 10 m76 0 q10 0 10 -10 m-86 10 h10 m48 0 h10 m0 0 h8 m20 -132 h10 m82 0 h10 m-238 0 h20 m218 0 h20 m-258 0 q10 0 10 10 m238 0 q0 -10 10 -10 m-248 10 v156 m238 0 v-156 m-238 156 q0 10 10 10 m218 0 q10 0 10 -10 m-228 10 h10 m58 0 h10 m0 0 h140 m20 -176 h10 m24 0 h10 m20 0 h10 m28 0 h10 m0 0 h10 m88 0 h10 m0 0 h10 m28 0 h10 m-224 0 h20 m204 0 h20 m-244 0 q10 0 10 10 m224 0 q0 -10 10 -10 m-234 10 v24 m224 0 v-24 m-224 24 q0 10 10 10 m204 0 q10 0 10 -10 m-214 10 h10 m52 0 h10 m0 0 h132 m20 -44 h58 m-624 0 h20 m604 0 h20 m-644 0 q10 0 10 10 m624 0 q0 -10 10 -10 m-634 10 v200 m624 0 v-200 m-624 200 q0 10 10 10 m604 0 q10 0 10 -10 m-614 10 h10 m58 0 h10 m0 0 h10 m26 0 h10 m0 0 h10 m82 0 h10 m0 0 h10 m24 0 h10 m0 0 h10 m82 0 h10 m20 0 h10 m0 0 h136 m-166 0 h20 m146 0 h20 m-186 0 q10 0 10 10 m166 0 q0 -10 10 -10 m-176 10 v12 m166 0 v-12 m-166 12 q0 10 10 10 m146 0 q10 0 10 -10 m-156 10 h10 m24 0 h10 m0 0 h10 m82 0 h10 m20 -32 h10 m26 0 h10 m23 -220 h-3"/>
         <polygon points="673 17 681 13 681 21"/>
         <polygon points="673 17 665 13 665 21"/></svg>

