<svg xmlns="http://www.w3.org/2000/svg" width="587" height="213">
         <defs>
            <style type="text/css">
    @namespace "http://www.w3.org/2000/svg";
    .line                 {fill: none; stroke: #332900; stroke-width: 1;}
    .bold-line            {stroke: #141000; shape-rendering: crispEdges; stroke-width: 2;}
    .thin-line            {stroke: #1F1800; shape-rendering: crispEdges}
    .filled               {fill: #332900; stroke: none;}
    text.terminal         {font-family: Verdana, Sans-serif;
                            font-size: 12px;
                            fill: #141000;
                            font-weight: bold;
                          }
    text.nonterminal      {font-family: Verdana, Sans-serif;
                            font-size: 12px;
                            fill: #1A1400;
                            font-weight: normal;
                          }
    text.regexp           {font-family: Verdana, Sans-serif;
                            font-size: 12px;
                            fill: #1F1800;
                            font-weight: normal;
                          }
    rect, circle, polygon {fill: #332900; stroke: #332900;}
    rect.terminal         {fill: #FFDB4D; stroke: #332900; stroke-width: 1;}
    rect.nonterminal      {fill: #FFEC9E; stroke: #332900; stroke-width: 1;}
    rect.text             {fill: none; stroke: none;}
    polygon.regexp        {fill: #FFF4C7; stroke: #332900; stroke-width: 1;}
  </style>
         </defs>
         <polygon points="9 17 1 13 1 21"/>
         <polygon points="17 17 9 13 9 21"/>
         <rect x="51" y="3" width="58" height="32" rx="10"/>
         <rect x="49" y="1" width="58" height="32" class="terminal" rx="10"/>
         <text class="terminal" x="59" y="21">count</text>
         <rect x="51" y="47" width="48" height="32" rx="10"/>
         <rect x="49" y="45" width="48" height="32" class="terminal" rx="10"/>
         <text class="terminal" x="59" y="65">max</text>
         <rect x="51" y="91" width="56" height="32" rx="10"/>
         <rect x="49" y="89" width="56" height="32" class="terminal" rx="10"/>
         <text class="terminal" x="59" y="109">mean</text>
         <rect x="51" y="135" width="44" height="32" rx="10"/>
         <rect x="49" y="133" width="44" height="32" class="terminal" rx="10"/>
         <text class="terminal" x="59" y="153">min</text>
         <rect x="51" y="179" width="48" height="32" rx="10"/>
         <rect x="49" y="177" width="48" height="32" class="terminal" rx="10"/>
         <text class="terminal" x="59" y="197">sum</text><a xmlns:xlink="http://www.w3.org/1999/xlink" xlink:href="#argument" xlink:title="argument">
            <rect x="169" y="35" width="82" height="32"/>
            <rect x="167" y="33" width="82" height="32" class="nonterminal"/>
            <text class="nonterminal" x="177" y="53">argument</text></a><rect x="291" y="3" width="24" height="32" rx="10"/>
         <rect x="289" y="1" width="24" height="32" class="terminal" rx="10"/>
         <text class="terminal" x="299" y="21">:</text>
         <rect x="355" y="3" width="28" height="32" rx="10"/>
         <rect x="353" y="1" width="28" height="32" class="terminal" rx="10"/>
         <text class="terminal" x="363" y="21">{</text><a xmlns:xlink="http://www.w3.org/1999/xlink" xlink:href="#disjunction" xlink:title="disjunction">
            <rect x="403" y="3" width="88" height="32"/>
            <rect x="401" y="1" width="88" height="32" class="nonterminal"/>
            <text class="nonterminal" x="411" y="21">disjunction</text></a><rect x="511" y="3" width="28" height="32" rx="10"/>
         <rect x="509" y="1" width="28" height="32" class="terminal" rx="10"/>
         <text class="terminal" x="519" y="21">}</text><a xmlns:xlink="http://www.w3.org/1999/xlink" xlink:href="#atom" xlink:title="atom">
            <rect x="355" y="47" width="52" height="32"/>
            <rect x="353" y="45" width="52" height="32" class="nonterminal"/>
            <text class="nonterminal" x="363" y="65">atom</text></a><svg:path xmlns:svg="http://www.w3.org/2000/svg" class="line" d="m17 17 h2 m20 0 h10 m58 0 h10 m-98 0 h20 m78 0 h20 m-118 0 q10 0 10 10 m98 0 q0 -10 10 -10 m-108 10 v24 m98 0 v-24 m-98 24 q0 10 10 10 m78 0 q10 0 10 -10 m-88 10 h10 m48 0 h10 m0 0 h10 m-88 -10 v20 m98 0 v-20 m-98 20 v24 m98 0 v-24 m-98 24 q0 10 10 10 m78 0 q10 0 10 -10 m-88 10 h10 m56 0 h10 m0 0 h2 m-88 -10 v20 m98 0 v-20 m-98 20 v24 m98 0 v-24 m-98 24 q0 10 10 10 m78 0 q10 0 10 -10 m-88 10 h10 m44 0 h10 m0 0 h14 m-88 -10 v20 m98 0 v-20 m-98 20 v24 m98 0 v-24 m-98 24 q0 10 10 10 m78 0 q10 0 10 -10 m-88 10 h10 m48 0 h10 m0 0 h10 m40 -176 h10 m0 0 h92 m-122 0 h20 m102 0 h20 m-142 0 q10 0 10 10 m122 0 q0 -10 10 -10 m-132 10 v12 m122 0 v-12 m-122 12 q0 10 10 10 m102 0 q10 0 10 -10 m-112 10 h10 m82 0 h10 m20 -32 h10 m24 0 h10 m20 0 h10 m28 0 h10 m0 0 h10 m88 0 h10 m0 0 h10 m28 0 h10 m-224 0 h20 m204 0 h20 m-244 0 q10 0 10 10 m224 0 q0 -10 10 -10 m-234 10 v24 m224 0 v-24 m-224 24 q0 10 10 10 m204 0 q10 0 10 -10 m-214 10 h10 m52 0 h10 m0 0 h132 m23 -44 h-3"/>
         <polygon points="577 17 585 13 585 21"/>
         <polygon points="577 17 569 13 569 21"/></svg>

