<svg xmlns="http://www.w3.org/2000/svg" width="523" height="553">
         <defs>
            <style type="text/css">
    @namespace "http://www.w3.org/2000/svg";
    .line                 {fill: none; stroke: #332900; stroke-width: 1;}
    .bold-line            {stroke: #141000; shape-rendering: crispEdges; stroke-width: 2;}
    .thin-line            {stroke: #1F1800; shape-rendering: crispEdges}
    .filled               {fill: #332900; stroke: none;}
    text.terminal         {font-family: Verdana, Sans-serif;
                            font-size: 12px;
                            fill: #141000;
                            font-weight: bold;
                          }
    text.nonterminal      {font-family: Verdana, Sans-serif;
                            font-size: 12px;
                            fill: #1A1400;
                            font-weight: normal;
                          }
    text.regexp           {font-family: Verdana, Sans-serif;
                            font-size: 12px;
                            fill: #1F1800;
                            font-weight: normal;
                          }
    rect, circle, polygon {fill: #332900; stroke: #332900;}
    rect.terminal         {fill: #FFDB4D; stroke: #332900; stroke-width: 1;}
    rect.nonterminal      {fill: #FFEC9E; stroke: #332900; stroke-width: 1;}
    rect.text             {fill: none; stroke: none;}
    polygon.regexp        {fill: #FFF4C7; stroke: #332900; stroke-width: 1;}
  </style>
         </defs>
         <polygon points="9 17 1 13 1 21"/>
         <polygon points="17 17 9 13 9 21"/><a xmlns:xlink="http://www.w3.org/1999/xlink" xlink:href="#constant" xlink:title="constant">
            <rect x="51" y="3" width="74" height="32"/>
            <rect x="49" y="1" width="74" height="32" class="nonterminal"/>
            <text class="nonterminal" x="59" y="21">constant</text></a><a xmlns:xlink="http://www.w3.org/1999/xlink" xlink:href="#variable" xlink:title="variable">
            <rect x="51" y="47" width="70" height="32"/>
            <rect x="49" y="45" width="70" height="32" class="nonterminal"/>
            <text class="nonterminal" x="59" y="65">variable</text></a><rect x="51" y="91" width="36" height="32" rx="10"/>
         <rect x="49" y="89" width="36" height="32" class="terminal" rx="10"/>
         <text class="terminal" x="59" y="109">nil</text>
         <rect x="51" y="135" width="26" height="32" rx="10"/>
         <rect x="49" y="133" width="26" height="32" class="terminal" rx="10"/>
         <text class="terminal" x="59" y="153">[</text><a xmlns:xlink="http://www.w3.org/1999/xlink" xlink:href="#argument_list" xlink:title="argument_list">
            <rect x="97" y="135" width="108" height="32"/>
            <rect x="95" y="133" width="108" height="32" class="nonterminal"/>
            <text class="nonterminal" x="105" y="153">argument_list</text></a><rect x="225" y="135" width="26" height="32" rx="10"/>
         <rect x="223" y="133" width="26" height="32" class="terminal" rx="10"/>
         <text class="terminal" x="233" y="153">]</text>
         <rect x="51" y="179" width="28" height="32" rx="10"/>
         <rect x="49" y="177" width="28" height="32" class="terminal" rx="10"/>
         <text class="terminal" x="59" y="197">$</text><a xmlns:xlink="http://www.w3.org/1999/xlink" xlink:href="#IDENT" xlink:title="IDENT">
            <rect x="99" y="179" width="58" height="32"/>
            <rect x="97" y="177" width="58" height="32" class="nonterminal"/>
            <text class="nonterminal" x="107" y="197">IDENT</text></a><rect x="197" y="211" width="26" height="32" rx="10"/>
         <rect x="195" y="209" width="26" height="32" class="terminal" rx="10"/>
         <text class="terminal" x="205" y="229">(</text><a xmlns:xlink="http://www.w3.org/1999/xlink" xlink:href="#argument_list" xlink:title="argument_list">
            <rect x="243" y="211" width="108" height="32"/>
            <rect x="241" y="209" width="108" height="32" class="nonterminal"/>
            <text class="nonterminal" x="251" y="229">argument_list</text></a><rect x="371" y="211" width="26" height="32" rx="10"/>
         <rect x="369" y="209" width="26" height="32" class="terminal" rx="10"/>
         <text class="terminal" x="379" y="229">)</text>
         <rect x="71" y="255" width="26" height="32" rx="10"/>
         <rect x="69" y="253" width="26" height="32" class="terminal" rx="10"/>
         <text class="terminal" x="79" y="273">(</text><a xmlns:xlink="http://www.w3.org/1999/xlink" xlink:href="#argument" xlink:title="argument">
            <rect x="117" y="255" width="82" height="32"/>
            <rect x="115" y="253" width="82" height="32" class="nonterminal"/>
            <text class="nonterminal" x="125" y="273">argument</text></a><rect x="71" y="299" width="34" height="32" rx="10"/>
         <rect x="69" y="297" width="34" height="32" class="terminal" rx="10"/>
         <text class="terminal" x="79" y="317">as</text>
         <rect x="125" y="299" width="26" height="32" rx="10"/>
         <rect x="123" y="297" width="26" height="32" class="terminal" rx="10"/>
         <text class="terminal" x="133" y="317">(</text><a xmlns:xlink="http://www.w3.org/1999/xlink" xlink:href="#argument" xlink:title="argument">
            <rect x="171" y="299" width="82" height="32"/>
            <rect x="169" y="297" width="82" height="32" class="nonterminal"/>
            <text class="nonterminal" x="179" y="317">argument</text></a><rect x="273" y="299" width="24" height="32" rx="10"/>
         <rect x="271" y="297" width="24" height="32" class="terminal" rx="10"/>
         <text class="terminal" x="281" y="317">,</text><a xmlns:xlink="http://www.w3.org/1999/xlink" xlink:href="#type_name" xlink:title="type_name">
            <rect x="317" y="299" width="92" height="32"/>
            <rect x="315" y="297" width="92" height="32" class="nonterminal"/>
            <text class="nonterminal" x="325" y="317">type_name</text></a><a xmlns:xlink="http://www.w3.org/1999/xlink" xlink:href="#userdef_functor" xlink:title="userdef_functor">
            <rect x="91" y="343" width="120" height="32"/>
            <rect x="89" y="341" width="120" height="32" class="nonterminal"/>
            <text class="nonterminal" x="99" y="361">userdef_functor</text></a><a xmlns:xlink="http://www.w3.org/1999/xlink" xlink:href="#intrinsic_functor" xlink:title="intrinsic_functor">
            <rect x="91" y="387" width="122" height="32"/>
            <rect x="89" y="385" width="122" height="32" class="nonterminal"/>
            <text class="nonterminal" x="99" y="405">intrinsic_functor</text></a><rect x="253" y="343" width="26" height="32" rx="10"/>
         <rect x="251" y="341" width="26" height="32" class="terminal" rx="10"/>
         <text class="terminal" x="261" y="361">(</text><a xmlns:xlink="http://www.w3.org/1999/xlink" xlink:href="#argument_list" xlink:title="argument_list">
            <rect x="299" y="343" width="108" height="32"/>
            <rect x="297" y="341" width="108" height="32" class="nonterminal"/>
            <text class="nonterminal" x="307" y="361">argument_list</text></a><rect x="449" y="255" width="26" height="32" rx="10"/>
         <rect x="447" y="253" width="26" height="32" class="terminal" rx="10"/>
         <text class="terminal" x="457" y="273">)</text><a xmlns:xlink="http://www.w3.org/1999/xlink" xlink:href="#aggregator" xlink:title="aggregator">
            <rect x="51" y="431" width="90" height="32"/>
            <rect x="49" y="429" width="90" height="32" class="nonterminal"/>
            <text class="nonterminal" x="59" y="449">aggregator</text></a><a xmlns:xlink="http://www.w3.org/1999/xlink" xlink:href="#unary_operation" xlink:title="unary_operation">
            <rect x="71" y="475" width="126" height="32"/>
            <rect x="69" y="473" width="126" height="32" class="nonterminal"/>
            <text class="nonterminal" x="79" y="493">unary_operation</text></a><a xmlns:xlink="http://www.w3.org/1999/xlink" xlink:href="#argument" xlink:title="argument">
            <rect x="71" y="519" width="82" height="32"/>
            <rect x="69" y="517" width="82" height="32" class="nonterminal"/>
            <text class="nonterminal" x="79" y="537">argument</text></a><a xmlns:xlink="http://www.w3.org/1999/xlink" xlink:href="#binary_operation" xlink:title="binary_operation">
            <rect x="173" y="519" width="128" height="32"/>
            <rect x="171" y="517" width="128" height="32" class="nonterminal"/>
            <text class="nonterminal" x="181" y="537">binary_operation</text></a><a xmlns:xlink="http://www.w3.org/1999/xlink" xlink:href="#argument" xlink:title="argument">
            <rect x="341" y="475" width="82" height="32"/>
            <rect x="339" y="473" width="82" height="32" class="nonterminal"/>
            <text class="nonterminal" x="349" y="493">argument</text></a><svg:path xmlns:svg="http://www.w3.org/2000/svg" class="line" d="m17 17 h2 m20 0 h10 m74 0 h10 m0 0 h350 m-464 0 h20 m444 0 h20 m-484 0 q10 0 10 10 m464 0 q0 -10 10 -10 m-474 10 v24 m464 0 v-24 m-464 24 q0 10 10 10 m444 0 q10 0 10 -10 m-454 10 h10 m70 0 h10 m0 0 h354 m-454 -10 v20 m464 0 v-20 m-464 20 v24 m464 0 v-24 m-464 24 q0 10 10 10 m444 0 q10 0 10 -10 m-454 10 h10 m36 0 h10 m0 0 h388 m-454 -10 v20 m464 0 v-20 m-464 20 v24 m464 0 v-24 m-464 24 q0 10 10 10 m444 0 q10 0 10 -10 m-454 10 h10 m26 0 h10 m0 0 h10 m108 0 h10 m0 0 h10 m26 0 h10 m0 0 h224 m-454 -10 v20 m464 0 v-20 m-464 20 v24 m464 0 v-24 m-464 24 q0 10 10 10 m444 0 q10 0 10 -10 m-454 10 h10 m28 0 h10 m0 0 h10 m58 0 h10 m20 0 h10 m0 0 h210 m-240 0 h20 m220 0 h20 m-260 0 q10 0 10 10 m240 0 q0 -10 10 -10 m-250 10 v12 m240 0 v-12 m-240 12 q0 10 10 10 m220 0 q10 0 10 -10 m-230 10 h10 m26 0 h10 m0 0 h10 m108 0 h10 m0 0 h10 m26 0 h10 m20 -32 h58 m-454 -10 v20 m464 0 v-20 m-464 20 v56 m464 0 v-56 m-464 56 q0 10 10 10 m444 0 q10 0 10 -10 m-434 10 h10 m26 0 h10 m0 0 h10 m82 0 h10 m0 0 h210 m-378 0 h20 m358 0 h20 m-398 0 q10 0 10 10 m378 0 q0 -10 10 -10 m-388 10 v24 m378 0 v-24 m-378 24 q0 10 10 10 m358 0 q10 0 10 -10 m-368 10 h10 m34 0 h10 m0 0 h10 m26 0 h10 m0 0 h10 m82 0 h10 m0 0 h10 m24 0 h10 m0 0 h10 m92 0 h10 m-368 -10 v20 m378 0 v-20 m-378 20 v24 m378 0 v-24 m-378 24 q0 10 10 10 m358 0 q10 0 10 -10 m-348 10 h10 m120 0 h10 m0 0 h2 m-162 0 h20 m142 0 h20 m-182 0 q10 0 10 10 m162 0 q0 -10 10 -10 m-172 10 v24 m162 0 v-24 m-162 24 q0 10 10 10 m142 0 q10 0 10 -10 m-152 10 h10 m122 0 h10 m20 -44 h10 m26 0 h10 m0 0 h10 m108 0 h10 m0 0 h2 m20 -88 h10 m26 0 h10 m-454 -10 v20 m464 0 v-20 m-464 20 v156 m464 0 v-156 m-464 156 q0 10 10 10 m444 0 q10 0 10 -10 m-454 10 h10 m90 0 h10 m0 0 h334 m-454 -10 v20 m464 0 v-20 m-464 20 v24 m464 0 v-24 m-464 24 q0 10 10 10 m444 0 q10 0 10 -10 m-434 10 h10 m126 0 h10 m0 0 h104 m-270 0 h20 m250 0 h20 m-290 0 q10 0 10 10 m270 0 q0 -10 10 -10 m-280 10 v24 m270 0 v-24 m-270 24 q0 10 10 10 m250 0 q10 0 10 -10 m-260 10 h10 m82 0 h10 m0 0 h10 m128 0 h10 m20 -44 h10 m82 0 h10 m0 0 h52 m23 -472 h-3"/>
         <polygon points="513 17 521 13 521 21"/>
         <polygon points="513 17 505 13 505 21"/></svg>
