
<svg xmlns="http://www.w3.org/2000/svg" width="523" height="1465">
         <defs>
            <style type="text/css">
    @namespace "http://www.w3.org/2000/svg";
    .line                 {fill: none; stroke: #332900; stroke-width: 1;}
    .bold-line            {stroke: #141000; shape-rendering: crispEdges; stroke-width: 2;}
    .thin-line            {stroke: #1F1800; shape-rendering: crispEdges}
    .filled               {fill: #332900; stroke: none;}
    text.terminal         {font-family: Verdana, Sans-serif;
                            font-size: 12px;
                            fill: #141000;
                            font-weight: bold;
                          }
    text.nonterminal      {font-family: Verdana, Sans-serif;
                            font-size: 12px;
                            fill: #1A1400;
                            font-weight: normal;
                          }
    text.regexp           {font-family: Verdana, Sans-serif;
                            font-size: 12px;
                            fill: #1F1800;
                            font-weight: normal;
                          }
    rect, circle, polygon {fill: #332900; stroke: #332900;}
    rect.terminal         {fill: #FFDB4D; stroke: #332900; stroke-width: 1;}
    rect.nonterminal      {fill: #FFEC9E; stroke: #332900; stroke-width: 1;}
    rect.text             {fill: none; stroke: none;}
    polygon.regexp        {fill: #FFF4C7; stroke: #332900; stroke-width: 1;}
  </style>
         </defs>
         <polygon points="9 17 1 13 1 21"/>
         <polygon points="17 17 9 13 9 21"/><a xmlns:xlink="http://www.w3.org/1999/xlink" xlink:href="#STRING" xlink:title="STRING">
            <rect x="51" y="3" width="66" height="32"/>
            <rect x="49" y="1" width="66" height="32" class="nonterminal"/>
            <text class="nonterminal" x="59" y="21">STRING</text></a><a xmlns:xlink="http://www.w3.org/1999/xlink" xlink:href="#FLOAT" xlink:title="FLOAT">
            <rect x="51" y="47" width="58" height="32"/>
            <rect x="49" y="45" width="58" height="32" class="nonterminal"/>
            <text class="nonterminal" x="59" y="65">FLOAT</text></a><a xmlns:xlink="http://www.w3.org/1999/xlink" xlink:href="#UNSIGNED" xlink:title="UNSIGNED">
            <rect x="51" y="91" width="86" height="32"/>
            <rect x="49" y="89" width="86" height="32" class="nonterminal"/>
            <text class="nonterminal" x="59" y="109">UNSIGNED</text></a><a xmlns:xlink="http://www.w3.org/1999/xlink" xlink:href="#NUMBER" xlink:title="NUMBER">
            <rect x="51" y="135" width="72" height="32"/>
            <rect x="49" y="133" width="72" height="32" class="nonterminal"/>
            <text class="nonterminal" x="59" y="153">NUMBER</text></a><rect x="51" y="179" width="28" height="32" rx="10"/>
         <rect x="49" y="177" width="28" height="32" class="terminal" rx="10"/>
         <text class="terminal" x="59" y="197">_</text>
         <rect x="51" y="223" width="28" height="32" rx="10"/>
         <rect x="49" y="221" width="28" height="32" class="terminal" rx="10"/>
         <text class="terminal" x="59" y="241">$</text><a xmlns:xlink="http://www.w3.org/1999/xlink" xlink:href="#IDENT" xlink:title="IDENT">
            <rect x="119" y="255" width="58" height="32"/>
            <rect x="117" y="253" width="58" height="32" class="nonterminal"/>
            <text class="nonterminal" x="127" y="273">IDENT</text></a><rect x="217" y="287" width="26" height="32" rx="10"/>
         <rect x="215" y="285" width="26" height="32" class="terminal" rx="10"/>
         <text class="terminal" x="225" y="305">(</text><a xmlns:xlink="http://www.w3.org/1999/xlink" xlink:href="#argument_list" xlink:title="argument_list">
            <rect x="263" y="287" width="108" height="32"/>
            <rect x="261" y="285" width="108" height="32" class="nonterminal"/>
            <text class="nonterminal" x="271" y="305">argument_list</text></a><rect x="391" y="287" width="26" height="32" rx="10"/>
         <rect x="389" y="285" width="26" height="32" class="terminal" rx="10"/>
         <text class="terminal" x="399" y="305">)</text><a xmlns:xlink="http://www.w3.org/1999/xlink" xlink:href="#IDENT" xlink:title="IDENT">
            <rect x="51" y="331" width="58" height="32"/>
            <rect x="49" y="329" width="58" height="32" class="nonterminal"/>
            <text class="nonterminal" x="59" y="349">IDENT</text></a><rect x="51" y="375" width="36" height="32" rx="10"/>
         <rect x="49" y="373" width="36" height="32" class="terminal" rx="10"/>
         <text class="terminal" x="59" y="393">nil</text>
         <rect x="51" y="419" width="26" height="32" rx="10"/>
         <rect x="49" y="417" width="26" height="32" class="terminal" rx="10"/>
         <text class="terminal" x="59" y="437">[</text><a xmlns:xlink="http://www.w3.org/1999/xlink" xlink:href="#argument_list" xlink:title="argument_list">
            <rect x="97" y="419" width="108" height="32"/>
            <rect x="95" y="417" width="108" height="32" class="nonterminal"/>
            <text class="nonterminal" x="105" y="437">argument_list</text></a><rect x="225" y="419" width="26" height="32" rx="10"/>
         <rect x="223" y="417" width="26" height="32" class="terminal" rx="10"/>
         <text class="terminal" x="233" y="437">]</text>
         <rect x="71" y="463" width="26" height="32" rx="10"/>
         <rect x="69" y="461" width="26" height="32" class="terminal" rx="10"/>
         <text class="terminal" x="79" y="481">(</text><a xmlns:xlink="http://www.w3.org/1999/xlink" xlink:href="#argument" xlink:title="argument">
            <rect x="117" y="463" width="82" height="32"/>
            <rect x="115" y="461" width="82" height="32" class="nonterminal"/>
            <text class="nonterminal" x="125" y="481">argument</text></a><rect x="71" y="507" width="34" height="32" rx="10"/>
         <rect x="69" y="505" width="34" height="32" class="terminal" rx="10"/>
         <text class="terminal" x="79" y="525">as</text>
         <rect x="125" y="507" width="26" height="32" rx="10"/>
         <rect x="123" y="505" width="26" height="32" class="terminal" rx="10"/>
         <text class="terminal" x="133" y="525">(</text><a xmlns:xlink="http://www.w3.org/1999/xlink" xlink:href="#argument" xlink:title="argument">
            <rect x="171" y="507" width="82" height="32"/>
            <rect x="169" y="505" width="82" height="32" class="nonterminal"/>
            <text class="nonterminal" x="179" y="525">argument</text></a><rect x="273" y="507" width="24" height="32" rx="10"/>
         <rect x="271" y="505" width="24" height="32" class="terminal" rx="10"/>
         <text class="terminal" x="281" y="525">,</text><a xmlns:xlink="http://www.w3.org/1999/xlink" xlink:href="#type_name" xlink:title="type_name">
            <rect x="317" y="507" width="92" height="32"/>
            <rect x="315" y="505" width="92" height="32" class="nonterminal"/>
            <text class="nonterminal" x="325" y="525">type_name</text></a><rect x="91" y="551" width="32" height="32" rx="10"/>
         <rect x="89" y="549" width="32" height="32" class="terminal" rx="10"/>
         <text class="terminal" x="99" y="569">@</text><a xmlns:xlink="http://www.w3.org/1999/xlink" xlink:href="#IDENT" xlink:title="IDENT">
            <rect x="143" y="551" width="58" height="32"/>
            <rect x="141" y="549" width="58" height="32" class="nonterminal"/>
            <text class="nonterminal" x="151" y="569">IDENT</text></a><a xmlns:xlink="http://www.w3.org/1999/xlink" xlink:href="#intrinsic_functor" xlink:title="intrinsic_functor">
            <rect x="91" y="595" width="122" height="32"/>
            <rect x="89" y="593" width="122" height="32" class="nonterminal"/>
            <text class="nonterminal" x="99" y="613">intrinsic_functor</text></a><rect x="253" y="551" width="26" height="32" rx="10"/>
         <rect x="251" y="549" width="26" height="32" class="terminal" rx="10"/>
         <text class="terminal" x="261" y="569">(</text><a xmlns:xlink="http://www.w3.org/1999/xlink" xlink:href="#argument_list" xlink:title="argument_list">
            <rect x="299" y="551" width="108" height="32"/>
            <rect x="297" y="549" width="108" height="32" class="nonterminal"/>
            <text class="nonterminal" x="307" y="569">argument_list</text></a><rect x="449" y="463" width="26" height="32" rx="10"/>
         <rect x="447" y="461" width="26" height="32" class="terminal" rx="10"/>
         <text class="terminal" x="457" y="481">)</text><a xmlns:xlink="http://www.w3.org/1999/xlink" xlink:href="#aggregator" xlink:title="aggregator">
            <rect x="51" y="639" width="90" height="32"/>
            <rect x="49" y="637" width="90" height="32" class="nonterminal"/>
            <text class="nonterminal" x="59" y="657">aggregator</text></a><rect x="71" y="683" width="26" height="32" rx="10"/>
         <rect x="69" y="681" width="26" height="32" class="terminal" rx="10"/>
         <text class="terminal" x="79" y="701">-</text>
         <rect x="71" y="727" width="50" height="32" rx="10"/>
         <rect x="69" y="725" width="50" height="32" class="terminal" rx="10"/>
         <text class="terminal" x="79" y="745">bnot</text>
         <rect x="71" y="771" width="46" height="32" rx="10"/>
         <rect x="69" y="769" width="46" height="32" class="terminal" rx="10"/>
         <text class="terminal" x="79" y="789">lnot</text><a xmlns:xlink="http://www.w3.org/1999/xlink" xlink:href="#argument" xlink:title="argument">
            <rect x="71" y="815" width="82" height="32"/>
            <rect x="69" y="813" width="82" height="32" class="nonterminal"/>
            <text class="nonterminal" x="79" y="833">argument</text></a><rect x="193" y="815" width="30" height="32" rx="10"/>
         <rect x="191" y="813" width="30" height="32" class="terminal" rx="10"/>
         <text class="terminal" x="201" y="833">+</text>
         <rect x="193" y="859" width="26" height="32" rx="10"/>
         <rect x="191" y="857" width="26" height="32" class="terminal" rx="10"/>
         <text class="terminal" x="201" y="877">-</text>
         <rect x="193" y="903" width="28" height="32" rx="10"/>
         <rect x="191" y="901" width="28" height="32" class="terminal" rx="10"/>
         <text class="terminal" x="201" y="921">*</text>
         <rect x="193" y="947" width="28" height="32" rx="10"/>
         <rect x="191" y="945" width="28" height="32" class="terminal" rx="10"/>
         <text class="terminal" x="201" y="965">/</text>
         <rect x="193" y="991" width="34" height="32" rx="10"/>
         <rect x="191" y="989" width="34" height="32" class="terminal" rx="10"/>
         <text class="terminal" x="201" y="1009">%</text>
         <rect x="193" y="1035" width="30" height="32" rx="10"/>
         <rect x="191" y="1033" width="30" height="32" class="terminal" rx="10"/>
         <text class="terminal" x="201" y="1053">^</text>
         <rect x="193" y="1079" width="48" height="32" rx="10"/>
         <rect x="191" y="1077" width="48" height="32" class="terminal" rx="10"/>
         <text class="terminal" x="201" y="1097">land</text>
         <rect x="193" y="1123" width="38" height="32" rx="10"/>
         <rect x="191" y="1121" width="38" height="32" class="terminal" rx="10"/>
         <text class="terminal" x="201" y="1141">lor</text>
         <rect x="193" y="1167" width="46" height="32" rx="10"/>
         <rect x="191" y="1165" width="46" height="32" class="terminal" rx="10"/>
         <text class="terminal" x="201" y="1185">lxor</text>
         <rect x="193" y="1211" width="52" height="32" rx="10"/>
         <rect x="191" y="1209" width="52" height="32" class="terminal" rx="10"/>
         <text class="terminal" x="201" y="1229">band</text>
         <rect x="193" y="1255" width="42" height="32" rx="10"/>
         <rect x="191" y="1253" width="42" height="32" class="terminal" rx="10"/>
         <text class="terminal" x="201" y="1273">bor</text>
         <rect x="193" y="1299" width="50" height="32" rx="10"/>
         <rect x="191" y="1297" width="50" height="32" class="terminal" rx="10"/>
         <text class="terminal" x="201" y="1317">bxor</text>
         <rect x="193" y="1343" width="48" height="32" rx="10"/>
         <rect x="191" y="1341" width="48" height="32" class="terminal" rx="10"/>
         <text class="terminal" x="201" y="1361">bshl</text>
         <rect x="193" y="1387" width="50" height="32" rx="10"/>
         <rect x="191" y="1385" width="50" height="32" class="terminal" rx="10"/>
         <text class="terminal" x="201" y="1405">bshr</text>
         <rect x="193" y="1431" width="58" height="32" rx="10"/>
         <rect x="191" y="1429" width="58" height="32" class="terminal" rx="10"/>
         <text class="terminal" x="201" y="1449">bshru</text><a xmlns:xlink="http://www.w3.org/1999/xlink" xlink:href="#argument" xlink:title="argument">
            <rect x="311" y="683" width="82" height="32"/>
            <rect x="309" y="681" width="82" height="32" class="nonterminal"/>
            <text class="nonterminal" x="319" y="701">argument</text></a><svg:path xmlns:svg="http://www.w3.org/2000/svg" class="line" d="m17 17 h2 m20 0 h10 m66 0 h10 m0 0 h358 m-464 0 h20 m444 0 h20 m-484 0 q10 0 10 10 m464 0 q0 -10 10 -10 m-474 10 v24 m464 0 v-24 m-464 24 q0 10 10 10 m444 0 q10 0 10 -10 m-454 10 h10 m58 0 h10 m0 0 h366 m-454 -10 v20 m464 0 v-20 m-464 20 v24 m464 0 v-24 m-464 24 q0 10 10 10 m444 0 q10 0 10 -10 m-454 10 h10 m86 0 h10 m0 0 h338 m-454 -10 v20 m464 0 v-20 m-464 20 v24 m464 0 v-24 m-464 24 q0 10 10 10 m444 0 q10 0 10 -10 m-454 10 h10 m72 0 h10 m0 0 h352 m-454 -10 v20 m464 0 v-20 m-464 20 v24 m464 0 v-24 m-464 24 q0 10 10 10 m444 0 q10 0 10 -10 m-454 10 h10 m28 0 h10 m0 0 h396 m-454 -10 v20 m464 0 v-20 m-464 20 v24 m464 0 v-24 m-464 24 q0 10 10 10 m444 0 q10 0 10 -10 m-454 10 h10 m28 0 h10 m20 0 h10 m0 0 h328 m-358 0 h20 m338 0 h20 m-378 0 q10 0 10 10 m358 0 q0 -10 10 -10 m-368 10 v12 m358 0 v-12 m-358 12 q0 10 10 10 m338 0 q10 0 10 -10 m-348 10 h10 m58 0 h10 m20 0 h10 m0 0 h210 m-240 0 h20 m220 0 h20 m-260 0 q10 0 10 10 m240 0 q0 -10 10 -10 m-250 10 v12 m240 0 v-12 m-240 12 q0 10 10 10 m220 0 q10 0 10 -10 m-230 10 h10 m26 0 h10 m0 0 h10 m108 0 h10 m0 0 h10 m26 0 h10 m40 -64 h18 m-454 -10 v20 m464 0 v-20 m-464 20 v88 m464 0 v-88 m-464 88 q0 10 10 10 m444 0 q10 0 10 -10 m-454 10 h10 m58 0 h10 m0 0 h366 m-454 -10 v20 m464 0 v-20 m-464 20 v24 m464 0 v-24 m-464 24 q0 10 10 10 m444 0 q10 0 10 -10 m-454 10 h10 m36 0 h10 m0 0 h388 m-454 -10 v20 m464 0 v-20 m-464 20 v24 m464 0 v-24 m-464 24 q0 10 10 10 m444 0 q10 0 10 -10 m-454 10 h10 m26 0 h10 m0 0 h10 m108 0 h10 m0 0 h10 m26 0 h10 m0 0 h224 m-454 -10 v20 m464 0 v-20 m-464 20 v24 m464 0 v-24 m-464 24 q0 10 10 10 m444 0 q10 0 10 -10 m-434 10 h10 m26 0 h10 m0 0 h10 m82 0 h10 m0 0 h210 m-378 0 h20 m358 0 h20 m-398 0 q10 0 10 10 m378 0 q0 -10 10 -10 m-388 10 v24 m378 0 v-24 m-378 24 q0 10 10 10 m358 0 q10 0 10 -10 m-368 10 h10 m34 0 h10 m0 0 h10 m26 0 h10 m0 0 h10 m82 0 h10 m0 0 h10 m24 0 h10 m0 0 h10 m92 0 h10 m-368 -10 v20 m378 0 v-20 m-378 20 v24 m378 0 v-24 m-378 24 q0 10 10 10 m358 0 q10 0 10 -10 m-348 10 h10 m32 0 h10 m0 0 h10 m58 0 h10 m0 0 h12 m-162 0 h20 m142 0 h20 m-182 0 q10 0 10 10 m162 0 q0 -10 10 -10 m-172 10 v24 m162 0 v-24 m-162 24 q0 10 10 10 m142 0 q10 0 10 -10 m-152 10 h10 m122 0 h10 m20 -44 h10 m26 0 h10 m0 0 h10 m108 0 h10 m0 0 h2 m20 -88 h10 m26 0 h10 m-454 -10 v20 m464 0 v-20 m-464 20 v156 m464 0 v-156 m-464 156 q0 10 10 10 m444 0 q10 0 10 -10 m-454 10 h10 m90 0 h10 m0 0 h334 m-454 -10 v20 m464 0 v-20 m-464 20 v24 m464 0 v-24 m-464 24 q0 10 10 10 m444 0 q10 0 10 -10 m-434 10 h10 m26 0 h10 m0 0 h174 m-240 0 h20 m220 0 h20 m-260 0 q10 0 10 10 m240 0 q0 -10 10 -10 m-250 10 v24 m240 0 v-24 m-240 24 q0 10 10 10 m220 0 q10 0 10 -10 m-230 10 h10 m50 0 h10 m0 0 h150 m-230 -10 v20 m240 0 v-20 m-240 20 v24 m240 0 v-24 m-240 24 q0 10 10 10 m220 0 q10 0 10 -10 m-230 10 h10 m46 0 h10 m0 0 h154 m-230 -10 v20 m240 0 v-20 m-240 20 v24 m240 0 v-24 m-240 24 q0 10 10 10 m220 0 q10 0 10 -10 m-230 10 h10 m82 0 h10 m20 0 h10 m30 0 h10 m0 0 h28 m-98 0 h20 m78 0 h20 m-118 0 q10 0 10 10 m98 0 q0 -10 10 -10 m-108 10 v24 m98 0 v-24 m-98 24 q0 10 10 10 m78 0 q10 0 10 -10 m-88 10 h10 m26 0 h10 m0 0 h32 m-88 -10 v20 m98 0 v-20 m-98 20 v24 m98 0 v-24 m-98 24 q0 10 10 10 m78 0 q10 0 10 -10 m-88 10 h10 m28 0 h10 m0 0 h30 m-88 -10 v20 m98 0 v-20 m-98 20 v24 m98 0 v-24 m-98 24 q0 10 10 10 m78 0 q10 0 10 -10 m-88 10 h10 m28 0 h10 m0 0 h30 m-88 -10 v20 m98 0 v-20 m-98 20 v24 m98 0 v-24 m-98 24 q0 10 10 10 m78 0 q10 0 10 -10 m-88 10 h10 m34 0 h10 m0 0 h24 m-88 -10 v20 m98 0 v-20 m-98 20 v24 m98 0 v-24 m-98 24 q0 10 10 10 m78 0 q10 0 10 -10 m-88 10 h10 m30 0 h10 m0 0 h28 m-88 -10 v20 m98 0 v-20 m-98 20 v24 m98 0 v-24 m-98 24 q0 10 10 10 m78 0 q10 0 10 -10 m-88 10 h10 m48 0 h10 m0 0 h10 m-88 -10 v20 m98 0 v-20 m-98 20 v24 m98 0 v-24 m-98 24 q0 10 10 10 m78 0 q10 0 10 -10 m-88 10 h10 m38 0 h10 m0 0 h20 m-88 -10 v20 m98 0 v-20 m-98 20 v24 m98 0 v-24 m-98 24 q0 10 10 10 m78 0 q10 0 10 -10 m-88 10 h10 m46 0 h10 m0 0 h12 m-88 -10 v20 m98 0 v-20 m-98 20 v24 m98 0 v-24 m-98 24 q0 10 10 10 m78 0 q10 0 10 -10 m-88 10 h10 m52 0 h10 m0 0 h6 m-88 -10 v20 m98 0 v-20 m-98 20 v24 m98 0 v-24 m-98 24 q0 10 10 10 m78 0 q10 0 10 -10 m-88 10 h10 m42 0 h10 m0 0 h16 m-88 -10 v20 m98 0 v-20 m-98 20 v24 m98 0 v-24 m-98 24 q0 10 10 10 m78 0 q10 0 10 -10 m-88 10 h10 m50 0 h10 m0 0 h8 m-88 -10 v20 m98 0 v-20 m-98 20 v24 m98 0 v-24 m-98 24 q0 10 10 10 m78 0 q10 0 10 -10 m-88 10 h10 m48 0 h10 m0 0 h10 m-88 -10 v20 m98 0 v-20 m-98 20 v24 m98 0 v-24 m-98 24 q0 10 10 10 m78 0 q10 0 10 -10 m-88 10 h10 m50 0 h10 m0 0 h8 m-88 -10 v20 m98 0 v-20 m-98 20 v24 m98 0 v-24 m-98 24 q0 10 10 10 m78 0 q10 0 10 -10 m-88 10 h10 m58 0 h10 m40 -748 h10 m82 0 h10 m0 0 h82 m23 -680 h-3"/>
         <polygon points="513 17 521 13 521 21"/>
         <polygon points="513 17 505 13 505 21"/>
</svg>


<xhtml:p xmlns:xhtml="http://www.w3.org/1999/xhtml">
         <xhtml:div class="ebnf"><xhtml:code>
               <div><a href="#argument" title="argument">argument</a> ::= <a href="#STRING" title="STRING">STRING</a></div>
               <div>           | <a href="#FLOAT" title="FLOAT">FLOAT</a></div>
               <div>           | <a href="#UNSIGNED" title="UNSIGNED">UNSIGNED</a></div>
               <div>           | <a href="#NUMBER" title="NUMBER">NUMBER</a></div>
               <div>           | '_'</div>
               <div>           | '$' ( <a href="#IDENT" title="IDENT">IDENT</a> ( '(' <a href="#argument_list" title="argument_list">argument_list</a> ')' )? )?</div>
               <div>           | <a href="#IDENT" title="IDENT">IDENT</a></div>
               <div>           | 'nil'</div>
               <div>           | '[' <a href="#argument_list" title="argument_list">argument_list</a> ']'</div>
               <div>           | ( '(' <a href="#argument" title="argument">argument</a> | 'as' '(' <a href="#argument" title="argument">argument</a> ',' <a href="#type_name" title="type_name">type_name</a> | ( '@' <a href="#IDENT" title="IDENT">IDENT</a> | <a href="#intrinsic_functor" title="intrinsic_functor">intrinsic_functor</a> ) '(' <a href="#argument_list" title="argument_list">argument_list</a> ) ')'</div>
               <div>           | <a href="#aggregator" title="aggregator">aggregator</a></div>
               <div>           | ( '-' | 'bnot' | 'lnot' | <a href="#argument" title="argument">argument</a> ( '+' | '-' | '*' | '/' | '%' | '^' | 'land' | 'lor' | 'lxor' | 'band' | 'bor' |
                  'bxor' | 'bshl' | 'bshr' | 'bshru' ) ) <a href="#argument" title="argument">argument</a></div></xhtml:code></xhtml:div>
      </xhtml:p>
      <xhtml:p xmlns:xhtml="http://www.w3.org/1999/xhtml">referenced by:
         <xhtml:ul>
            <xhtml:li><xhtml:a href="#argument" title="argument">argument</xhtml:a></xhtml:li>
            <xhtml:li><xhtml:a href="#argument_list" title="argument_list">argument_list</xhtml:a></xhtml:li>
            <xhtml:li><xhtml:a href="#constraint" title="constraint">constraint</xhtml:a></xhtml:li>
         </xhtml:ul>
      </xhtml:p><xhtml:br xmlns:xhtml="http://www.w3.org/1999/xhtml" /><xhtml:p xmlns:xhtml="http://www.w3.org/1999/xhtml" style="font-size: 14px; font-weight:bold"><xhtml:a name="intrinsic_functor">intrinsic_functor:</xhtml:a></xhtml:p>

<svg xmlns="http://www.w3.org/2000/svg" width="203" height="389">
         <defs>
            <style type="text/css">
    @namespace "http://www.w3.org/2000/svg";
    .line                 {fill: none; stroke: #332900; stroke-width: 1;}
    .bold-line            {stroke: #141000; shape-rendering: crispEdges; stroke-width: 2;}
    .thin-line            {stroke: #1F1800; shape-rendering: crispEdges}
    .filled               {fill: #332900; stroke: none;}
    text.terminal         {font-family: Verdana, Sans-serif;
                            font-size: 12px;
                            fill: #141000;
                            font-weight: bold;
                          }
    text.nonterminal      {font-family: Verdana, Sans-serif;
                            font-size: 12px;
                            fill: #1A1400;
                            font-weight: normal;
                          }
    text.regexp           {font-family: Verdana, Sans-serif;
                            font-size: 12px;
                            fill: #1F1800;
                            font-weight: normal;
                          }
    rect, circle, polygon {fill: #332900; stroke: #332900;}
    rect.terminal         {fill: #FFDB4D; stroke: #332900; stroke-width: 1;}
    rect.nonterminal      {fill: #FFEC9E; stroke: #332900; stroke-width: 1;}
    rect.text             {fill: none; stroke: none;}
    polygon.regexp        {fill: #FFF4C7; stroke: #332900; stroke-width: 1;}
  </style>
         </defs>
         <polygon points="9 17 1 13 1 21"/>
         <polygon points="17 17 9 13 9 21"/>
         <rect x="51" y="3" width="40" height="32" rx="10"/>
         <rect x="49" y="1" width="40" height="32" class="terminal" rx="10"/>
         <text class="terminal" x="59" y="21">cat</text>
         <rect x="51" y="47" width="42" height="32" rx="10"/>
         <rect x="49" y="45" width="42" height="32" class="terminal" rx="10"/>
         <text class="terminal" x="59" y="65">ord</text>
         <rect x="51" y="91" width="58" height="32" rx="10"/>
         <rect x="49" y="89" width="58" height="32" class="terminal" rx="10"/>
         <text class="terminal" x="59" y="109">range</text>
         <rect x="51" y="135" width="58" height="32" rx="10"/>
         <rect x="49" y="133" width="58" height="32" class="terminal" rx="10"/>
         <text class="terminal" x="59" y="153">strlen</text>
         <rect x="51" y="179" width="62" height="32" rx="10"/>
         <rect x="49" y="177" width="62" height="32" class="terminal" rx="10"/>
         <text class="terminal" x="59" y="197">substr</text>
         <rect x="51" y="223" width="72" height="32" rx="10"/>
         <rect x="49" y="221" width="72" height="32" class="terminal" rx="10"/>
         <text class="terminal" x="59" y="241">to_float</text>
         <rect x="51" y="267" width="94" height="32" rx="10"/>
         <rect x="49" y="265" width="94" height="32" class="terminal" rx="10"/>
         <text class="terminal" x="59" y="285">to_number</text>
         <rect x="51" y="311" width="82" height="32" rx="10"/>
         <rect x="49" y="309" width="82" height="32" class="terminal" rx="10"/>
         <text class="terminal" x="59" y="329">to_string</text>
         <rect x="51" y="355" width="104" height="32" rx="10"/>
         <rect x="49" y="353" width="104" height="32" class="terminal" rx="10"/>
         <text class="terminal" x="59" y="373">to_unsigned</text>
         <svg:path xmlns:svg="http://www.w3.org/2000/svg" class="line" d="m17 17 h2 m20 0 h10 m40 0 h10 m0 0 h64 m-144 0 h20 m124 0 h20 m-164 0 q10 0 10 10 m144 0 q0 -10 10 -10 m-154 10 v24 m144 0 v-24 m-144 24 q0 10 10 10 m124 0 q10 0 10 -10 m-134 10 h10 m42 0 h10 m0 0 h62 m-134 -10 v20 m144 0 v-20 m-144 20 v24 m144 0 v-24 m-144 24 q0 10 10 10 m124 0 q10 0 10 -10 m-134 10 h10 m58 0 h10 m0 0 h46 m-134 -10 v20 m144 0 v-20 m-144 20 v24 m144 0 v-24 m-144 24 q0 10 10 10 m124 0 q10 0 10 -10 m-134 10 h10 m58 0 h10 m0 0 h46 m-134 -10 v20 m144 0 v-20 m-144 20 v24 m144 0 v-24 m-144 24 q0 10 10 10 m124 0 q10 0 10 -10 m-134 10 h10 m62 0 h10 m0 0 h42 m-134 -10 v20 m144 0 v-20 m-144 20 v24 m144 0 v-24 m-144 24 q0 10 10 10 m124 0 q10 0 10 -10 m-134 10 h10 m72 0 h10 m0 0 h32 m-134 -10 v20 m144 0 v-20 m-144 20 v24 m144 0 v-24 m-144 24 q0 10 10 10 m124 0 q10 0 10 -10 m-134 10 h10 m94 0 h10 m0 0 h10 m-134 -10 v20 m144 0 v-20 m-144 20 v24 m144 0 v-24 m-144 24 q0 10 10 10 m124 0 q10 0 10 -10 m-134 10 h10 m82 0 h10 m0 0 h22 m-134 -10 v20 m144 0 v-20 m-144 20 v24 m144 0 v-24 m-144 24 q0 10 10 10 m124 0 q10 0 10 -10 m-134 10 h10 m104 0 h10 m23 -352 h-3"/>
         <polygon points="193 17 201 13 201 21"/>
         <polygon points="193 17 185 13 185 21"/>
</svg>
