<svg xmlns="http://www.w3.org/2000/svg" width="523" height="729">
         <defs>
            <style type="text/css">
    @namespace "http://www.w3.org/2000/svg";
    .line                 {fill: none; stroke: #332900; stroke-width: 1;}
    .bold-line            {stroke: #141000; shape-rendering: crispEdges; stroke-width: 2;}
    .thin-line            {stroke: #1F1800; shape-rendering: crispEdges}
    .filled               {fill: #332900; stroke: none;}
    text.terminal         {font-family: Verdana, Sans-serif;
                            font-size: 12px;
                            fill: #141000;
                            font-weight: bold;
                          }
    text.nonterminal      {font-family: Verdana, Sans-serif;
                            font-size: 12px;
                            fill: #1A1400;
                            font-weight: normal;
                          }
    text.regexp           {font-family: Verdana, Sans-serif;
                            font-size: 12px;
                            fill: #1F1800;
                            font-weight: normal;
                          }
    rect, circle, polygon {fill: #332900; stroke: #332900;}
    rect.terminal         {fill: #FFDB4D; stroke: #332900; stroke-width: 1;}
    rect.nonterminal      {fill: #FFEC9E; stroke: #332900; stroke-width: 1;}
    rect.text             {fill: none; stroke: none;}
    polygon.regexp        {fill: #FFF4C7; stroke: #332900; stroke-width: 1;}
  </style>
         </defs>
         <polygon points="9 17 1 13 1 21"/>
         <polygon points="17 17 9 13 9 21"/><a xmlns:xlink="http://www.w3.org/1999/xlink" xlink:href="#STRING" xlink:title="STRING">
            <rect x="51" y="3" width="66" height="32"/>
            <rect x="49" y="1" width="66" height="32" class="nonterminal"/>
            <text class="nonterminal" x="59" y="21">STRING</text></a><a xmlns:xlink="http://www.w3.org/1999/xlink" xlink:href="#FLOAT" xlink:title="FLOAT">
            <rect x="51" y="47" width="58" height="32"/>
            <rect x="49" y="45" width="58" height="32" class="nonterminal"/>
            <text class="nonterminal" x="59" y="65">FLOAT</text></a><a xmlns:xlink="http://www.w3.org/1999/xlink" xlink:href="#UNSIGNED" xlink:title="UNSIGNED">
            <rect x="51" y="91" width="86" height="32"/>
            <rect x="49" y="89" width="86" height="32" class="nonterminal"/>
            <text class="nonterminal" x="59" y="109">UNSIGNED</text></a><a xmlns:xlink="http://www.w3.org/1999/xlink" xlink:href="#NUMBER" xlink:title="NUMBER">
            <rect x="51" y="135" width="72" height="32"/>
            <rect x="49" y="133" width="72" height="32" class="nonterminal"/>
            <text class="nonterminal" x="59" y="153">NUMBER</text></a><a xmlns:xlink="http://www.w3.org/1999/xlink" xlink:href="#IDENT" xlink:title="IDENT">
            <rect x="51" y="179" width="58" height="32"/>
            <rect x="49" y="177" width="58" height="32" class="nonterminal"/>
            <text class="nonterminal" x="59" y="197">IDENT</text></a><rect x="51" y="223" width="28" height="32" rx="10"/>
         <rect x="49" y="221" width="28" height="32" class="terminal" rx="10"/>
         <text class="terminal" x="59" y="241">_</text>
         <rect x="51" y="267" width="36" height="32" rx="10"/>
         <rect x="49" y="265" width="36" height="32" class="terminal" rx="10"/>
         <text class="terminal" x="59" y="285">nil</text>
         <rect x="51" y="311" width="26" height="32" rx="10"/>
         <rect x="49" y="309" width="26" height="32" class="terminal" rx="10"/>
         <text class="terminal" x="59" y="329">[</text><a xmlns:xlink="http://www.w3.org/1999/xlink" xlink:href="#argument_list" xlink:title="argument_list">
            <rect x="97" y="311" width="108" height="32"/>
            <rect x="95" y="309" width="108" height="32" class="nonterminal"/>
            <text class="nonterminal" x="105" y="329">argument_list</text></a><rect x="225" y="311" width="26" height="32" rx="10"/>
         <rect x="223" y="309" width="26" height="32" class="terminal" rx="10"/>
         <text class="terminal" x="233" y="329">]</text>
         <rect x="51" y="355" width="28" height="32" rx="10"/>
         <rect x="49" y="353" width="28" height="32" class="terminal" rx="10"/>
         <text class="terminal" x="59" y="373">$</text><a xmlns:xlink="http://www.w3.org/1999/xlink" xlink:href="#IDENT" xlink:title="IDENT">
            <rect x="99" y="355" width="58" height="32"/>
            <rect x="97" y="353" width="58" height="32" class="nonterminal"/>
            <text class="nonterminal" x="107" y="373">IDENT</text></a><rect x="197" y="387" width="26" height="32" rx="10"/>
         <rect x="195" y="385" width="26" height="32" class="terminal" rx="10"/>
         <text class="terminal" x="205" y="405">(</text><a xmlns:xlink="http://www.w3.org/1999/xlink" xlink:href="#argument_list" xlink:title="argument_list">
            <rect x="243" y="387" width="108" height="32"/>
            <rect x="241" y="385" width="108" height="32" class="nonterminal"/>
            <text class="nonterminal" x="251" y="405">argument_list</text></a><rect x="371" y="387" width="26" height="32" rx="10"/>
         <rect x="369" y="385" width="26" height="32" class="terminal" rx="10"/>
         <text class="terminal" x="379" y="405">)</text>
         <rect x="71" y="431" width="26" height="32" rx="10"/>
         <rect x="69" y="429" width="26" height="32" class="terminal" rx="10"/>
         <text class="terminal" x="79" y="449">(</text><a xmlns:xlink="http://www.w3.org/1999/xlink" xlink:href="#argument" xlink:title="argument">
            <rect x="117" y="431" width="82" height="32"/>
            <rect x="115" y="429" width="82" height="32" class="nonterminal"/>
            <text class="nonterminal" x="125" y="449">argument</text></a><rect x="71" y="475" width="34" height="32" rx="10"/>
         <rect x="69" y="473" width="34" height="32" class="terminal" rx="10"/>
         <text class="terminal" x="79" y="493">as</text>
         <rect x="125" y="475" width="26" height="32" rx="10"/>
         <rect x="123" y="473" width="26" height="32" class="terminal" rx="10"/>
         <text class="terminal" x="133" y="493">(</text><a xmlns:xlink="http://www.w3.org/1999/xlink" xlink:href="#argument" xlink:title="argument">
            <rect x="171" y="475" width="82" height="32"/>
            <rect x="169" y="473" width="82" height="32" class="nonterminal"/>
            <text class="nonterminal" x="179" y="493">argument</text></a><rect x="273" y="475" width="24" height="32" rx="10"/>
         <rect x="271" y="473" width="24" height="32" class="terminal" rx="10"/>
         <text class="terminal" x="281" y="493">,</text><a xmlns:xlink="http://www.w3.org/1999/xlink" xlink:href="#type_name" xlink:title="type_name">
            <rect x="317" y="475" width="92" height="32"/>
            <rect x="315" y="473" width="92" height="32" class="nonterminal"/>
            <text class="nonterminal" x="325" y="493">type_name</text></a><a xmlns:xlink="http://www.w3.org/1999/xlink" xlink:href="#userdef_functor" xlink:title="userdef_functor">
            <rect x="91" y="519" width="120" height="32"/>
            <rect x="89" y="517" width="120" height="32" class="nonterminal"/>
            <text class="nonterminal" x="99" y="537">userdef_functor</text></a><a xmlns:xlink="http://www.w3.org/1999/xlink" xlink:href="#intrinsic_functor" xlink:title="intrinsic_functor">
            <rect x="91" y="563" width="122" height="32"/>
            <rect x="89" y="561" width="122" height="32" class="nonterminal"/>
            <text class="nonterminal" x="99" y="581">intrinsic_functor</text></a><rect x="253" y="519" width="26" height="32" rx="10"/>
         <rect x="251" y="517" width="26" height="32" class="terminal" rx="10"/>
         <text class="terminal" x="261" y="537">(</text><a xmlns:xlink="http://www.w3.org/1999/xlink" xlink:href="#argument_list" xlink:title="argument_list">
            <rect x="299" y="519" width="108" height="32"/>
            <rect x="297" y="517" width="108" height="32" class="nonterminal"/>
            <text class="nonterminal" x="307" y="537">argument_list</text></a><rect x="449" y="431" width="26" height="32" rx="10"/>
         <rect x="447" y="429" width="26" height="32" class="terminal" rx="10"/>
         <text class="terminal" x="457" y="449">)</text><a xmlns:xlink="http://www.w3.org/1999/xlink" xlink:href="#aggregator" xlink:title="aggregator">
            <rect x="51" y="607" width="90" height="32"/>
            <rect x="49" y="605" width="90" height="32" class="nonterminal"/>
            <text class="nonterminal" x="59" y="625">aggregator</text></a><a xmlns:xlink="http://www.w3.org/1999/xlink" xlink:href="#unary_operation" xlink:title="unary_operation">
            <rect x="71" y="651" width="126" height="32"/>
            <rect x="69" y="649" width="126" height="32" class="nonterminal"/>
            <text class="nonterminal" x="79" y="669">unary_operation</text></a><a xmlns:xlink="http://www.w3.org/1999/xlink" xlink:href="#argument" xlink:title="argument">
            <rect x="71" y="695" width="82" height="32"/>
            <rect x="69" y="693" width="82" height="32" class="nonterminal"/>
            <text class="nonterminal" x="79" y="713">argument</text></a><a xmlns:xlink="http://www.w3.org/1999/xlink" xlink:href="#binary_operation" xlink:title="binary_operation">
            <rect x="173" y="695" width="128" height="32"/>
            <rect x="171" y="693" width="128" height="32" class="nonterminal"/>
            <text class="nonterminal" x="181" y="713">binary_operation</text></a><a xmlns:xlink="http://www.w3.org/1999/xlink" xlink:href="#argument" xlink:title="argument">
            <rect x="341" y="651" width="82" height="32"/>
    <rect x="339" y="649" width="82" height="32" class="nonterminal"/>
    <text class="nonterminal" x="349" y="669">argument</text></a><svg:path xmlns:svg="http://www.w3.org/2000/svg" class="line" d="m17 17 h2 m20 0 h10 m66 0 h10 m0 0 h358 m-464 0 h20 m444 0 h20 m-484 0 q10 0 10 10 m464 0 q0 -10 10 -10 m-474 10 v24 m464 0 v-24 m-464 24 q0 10 10 10 m444 0 q10 0 10 -10 m-454 10 h10 m58 0 h10 m0 0 h366 m-454 -10 v20 m464 0 v-20 m-464 20 v24 m464 0 v-24 m-464 24 q0 10 10 10 m444 0 q10 0 10 -10 m-454 10 h10 m86 0 h10 m0 0 h338 m-454 -10 v20 m464 0 v-20 m-464 20 v24 m464 0 v-24 m-464 24 q0 10 10 10 m444 0 q10 0 10 -10 m-454 10 h10 m72 0 h10 m0 0 h352 m-454 -10 v20 m464 0 v-20 m-464 20 v24 m464 0 v-24 m-464 24 q0 10 10 10 m444 0 q10 0 10 -10 m-454 10 h10 m58 0 h10 m0 0 h366 m-454 -10 v20 m464 0 v-20 m-464 20 v24 m464 0 v-24 m-464 24 q0 10 10 10 m444 0 q10 0 10 -10 m-454 10 h10 m28 0 h10 m0 0 h396 m-454 -10 v20 m464 0 v-20 m-464 20 v24 m464 0 v-24 m-464 24 q0 10 10 10 m444 0 q10 0 10 -10 m-454 10 h10 m36 0 h10 m0 0 h388 m-454 -10 v20 m464 0 v-20 m-464 20 v24 m464 0 v-24 m-464 24 q0 10 10 10 m444 0 q10 0 10 -10 m-454 10 h10 m26 0 h10 m0 0 h10 m108 0 h10 m0 0 h10 m26 0 h10 m0 0 h224 m-454 -10 v20 m464 0 v-20 m-464 20 v24 m464 0 v-24 m-464 24 q0 10 10 10 m444 0 q10 0 10 -10 m-454 10 h10 m28 0 h10 m0 0 h10 m58 0 h10 m20 0 h10 m0 0 h210 m-240 0 h20 m220 0 h20 m-260 0 q10 0 10 10 m240 0 q0 -10 10 -10 m-250 10 v12 m240 0 v-12 m-240 12 q0 10 10 10 m220 0 q10 0 10 -10 m-230 10 h10 m26 0 h10 m0 0 h10 m108 0 h10 m0 0 h10 m26 0 h10 m20 -32 h58 m-454 -10 v20 m464 0 v-20 m-464 20 v56 m464 0 v-56 m-464 56 q0 10 10 10 m444 0 q10 0 10 -10 m-434 10 h10 m26 0 h10 m0 0 h10 m82 0 h10 m0 0 h210 m-378 0 h20 m358 0 h20 m-398 0 q10 0 10 10 m378 0 q0 -10 10 -10 m-388 10 v24 m378 0 v-24 m-378 24 q0 10 10 10 m358 0 q10 0 10 -10 m-368 10 h10 m34 0 h10 m0 0 h10 m26 0 h10 m0 0 h10 m82 0 h10 m0 0 h10 m24 0 h10 m0 0 h10 m92 0 h10 m-368 -10 v20 m378 0 v-20 m-378 20 v24 m378 0 v-24 m-378 24 q0 10 10 10 m358 0 q10 0 10 -10 m-348 10 h10 m120 0 h10 m0 0 h2 m-162 0 h20 m142 0 h20 m-182 0 q10 0 10 10 m162 0 q0 -10 10 -10 m-172 10 v24 m162 0 v-24 m-162 24 q0 10 10 10 m142 0 q10 0 10 -10 m-152 10 h10 m122 0 h10 m20 -44 h10 m26 0 h10 m0 0 h10 m108 0 h10 m0 0 h2 m20 -88 h10 m26 0 h10 m-454 -10 v20 m464 0 v-20 m-464 20 v156 m464 0 v-156 m-464 156 q0 10 10 10 m444 0 q10 0 10 -10 m-454 10 h10 m90 0 h10 m0 0 h334 m-454 -10 v20 m464 0 v-20 m-464 20 v24 m464 0 v-24 m-464 24 q0 10 10 10 m444 0 q10 0 10 -10 m-434 10 h10 m126 0 h10 m0 0 h104 m-270 0 h20 m250 0 h20 m-290 0 q10 0 10 10 m270 0 q0 -10 10 -10 m-280 10 v24 m270 0 v-24 m-270 24 q0 10 10 10 m250 0 q10 0 10 -10 m-260 10 h10 m82 0 h10 m0 0 h10 m128 0 h10 m20 -44 h10 m82 0 h10 m0 0 h52 m23 -648 h-3"/>
         <polygon points="513 17 521 13 521 21"/>
         <polygon points="513 17 505 13 505 21"/></svg>

