<svg xmlns="http://www.w3.org/2000/svg" width="451" height="97">
         <defs>
            <style type="text/css">
    @namespace "http://www.w3.org/2000/svg";
    .line                 {fill: none; stroke: #332900; stroke-width: 1;}
    .bold-line            {stroke: #141000; shape-rendering: crispEdges; stroke-width: 2;}
    .thin-line            {stroke: #1F1800; shape-rendering: crispEdges}
    .filled               {fill: #332900; stroke: none;}
    text.terminal         {font-family: Verdana, Sans-serif;
                            font-size: 12px;
                            fill: #141000;
                            font-weight: bold;
                          }
    text.nonterminal      {font-family: Verdana, Sans-serif;
                            font-size: 12px;
                            fill: #1A1400;
                            font-weight: normal;
                          }
    text.regexp           {font-family: Verdana, Sans-serif;
                            font-size: 12px;
                            fill: #1F1800;
                            font-weight: normal;
                          }
    rect, circle, polygon {fill: #332900; stroke: #332900;}
    rect.terminal         {fill: #FFDB4D; stroke: #332900; stroke-width: 1;}
    rect.nonterminal      {fill: #FFEC9E; stroke: #332900; stroke-width: 1;}
    rect.text             {fill: none; stroke: none;}
    polygon.regexp        {fill: #FFF4C7; stroke: #332900; stroke-width: 1;}
  </style>
         </defs>
         <polygon points="9 61 1 57 1 65"/>
         <polygon points="17 61 9 57 9 65"/><a xmlns:xlink="http://www.w3.org/1999/xlink" xlink:href="#qualified_name" xlink:title="qualified_name">
            <rect x="31" y="47" width="118" height="32"/>
            <rect x="29" y="45" width="118" height="32" class="nonterminal"/>
            <text class="nonterminal" x="39" y="65">qualified_name</text></a><rect x="169" y="47" width="26" height="32" rx="10"/>
         <rect x="167" y="45" width="26" height="32" class="terminal" rx="10"/>
         <text class="terminal" x="177" y="65">(</text><a xmlns:xlink="http://www.w3.org/1999/xlink" xlink:href="#argument" xlink:title="argument">
            <rect x="255" y="47" width="82" height="32"/>
            <rect x="253" y="45" width="82" height="32" class="nonterminal"/>
            <text class="nonterminal" x="263" y="65">argument</text></a><rect x="255" y="3" width="24" height="32" rx="10"/>
         <rect x="253" y="1" width="24" height="32" class="terminal" rx="10"/>
         <text class="terminal" x="263" y="21">,</text>
         <rect x="397" y="47" width="26" height="32" rx="10"/>
         <rect x="395" y="45" width="26" height="32" class="terminal" rx="10"/>
         <text class="terminal" x="405" y="65">)</text>
         <svg:path xmlns:svg="http://www.w3.org/2000/svg" class="line" d="m17 61 h2 m0 0 h10 m118 0 h10 m0 0 h10 m26 0 h10 m40 0 h10 m82 0 h10 m-122 0 l20 0 m-1 0 q-9 0 -9 -10 l0 -24 q0 -10 10 -10 m102 44 l20 0 m-20 0 q10 0 10 -10 l0 -24 q0 -10 -10 -10 m-102 0 h10 m24 0 h10 m0 0 h58 m-142 44 h20 m142 0 h20 m-182 0 q10 0 10 10 m162 0 q0 -10 10 -10 m-172 10 v14 m162 0 v-14 m-162 14 q0 10 10 10 m142 0 q10 0 10 -10 m-152 10 h10 m0 0 h132 m20 -34 h10 m26 0 h10 m3 0 h-3"/>
         <polygon points="441 61 449 57 449 65"/>
         <polygon points="441 61 433 57 433 65"/>
</svg>

