<svg xmlns="http://www.w3.org/2000/svg" width="157" height="653">
         <defs>
            <style type="text/css">
    @namespace "http://www.w3.org/2000/svg";
    .line                 {fill: none; stroke: #332900; stroke-width: 1;}
    .bold-line            {stroke: #141000; shape-rendering: crispEdges; stroke-width: 2;}
    .thin-line            {stroke: #1F1800; shape-rendering: crispEdges}
    .filled               {fill: #332900; stroke: none;}
    text.terminal         {font-family: Verdana, Sans-serif;
                            font-size: 12px;
                            fill: #141000;
                            font-weight: bold;
                          }
    text.nonterminal      {font-family: Verdana, Sans-serif;
                            font-size: 12px;
                            fill: #1A1400;
                            font-weight: normal;
                          }
    text.regexp           {font-family: Verdana, Sans-serif;
                            font-size: 12px;
                            fill: #1F1800;
                            font-weight: normal;
                          }
    rect, circle, polygon {fill: #332900; stroke: #332900;}
    rect.terminal         {fill: #FFDB4D; stroke: #332900; stroke-width: 1;}
    rect.nonterminal      {fill: #FFEC9E; stroke: #332900; stroke-width: 1;}
    rect.text             {fill: none; stroke: none;}
    polygon.regexp        {fill: #FFF4C7; stroke: #332900; stroke-width: 1;}
  </style>
         </defs>
         <polygon points="9 17 1 13 1 21"/>
         <polygon points="17 17 9 13 9 21"/>
         <rect x="51" y="3" width="30" height="32" rx="10"/>
         <rect x="49" y="1" width="30" height="32" class="terminal" rx="10"/>
         <text class="terminal" x="59" y="21">+</text>
         <rect x="51" y="47" width="26" height="32" rx="10"/>
         <rect x="49" y="45" width="26" height="32" class="terminal" rx="10"/>
         <text class="terminal" x="59" y="65">-</text>
         <rect x="51" y="91" width="28" height="32" rx="10"/>
         <rect x="49" y="89" width="28" height="32" class="terminal" rx="10"/>
         <text class="terminal" x="59" y="109">*</text>
         <rect x="51" y="135" width="28" height="32" rx="10"/>
         <rect x="49" y="133" width="28" height="32" class="terminal" rx="10"/>
         <text class="terminal" x="59" y="153">/</text>
         <rect x="51" y="179" width="34" height="32" rx="10"/>
         <rect x="49" y="177" width="34" height="32" class="terminal" rx="10"/>
         <text class="terminal" x="59" y="197">%</text>
         <rect x="51" y="223" width="30" height="32" rx="10"/>
         <rect x="49" y="221" width="30" height="32" class="terminal" rx="10"/>
         <text class="terminal" x="59" y="241">^</text>
         <rect x="51" y="267" width="48" height="32" rx="10"/>
         <rect x="49" y="265" width="48" height="32" class="terminal" rx="10"/>
         <text class="terminal" x="59" y="285">land</text>
         <rect x="51" y="311" width="38" height="32" rx="10"/>
         <rect x="49" y="309" width="38" height="32" class="terminal" rx="10"/>
         <text class="terminal" x="59" y="329">lor</text>
         <rect x="51" y="355" width="46" height="32" rx="10"/>
         <rect x="49" y="353" width="46" height="32" class="terminal" rx="10"/>
         <text class="terminal" x="59" y="373">lxor</text>
         <rect x="51" y="399" width="52" height="32" rx="10"/>
         <rect x="49" y="397" width="52" height="32" class="terminal" rx="10"/>
         <text class="terminal" x="59" y="417">band</text>
         <rect x="51" y="443" width="42" height="32" rx="10"/>
         <rect x="49" y="441" width="42" height="32" class="terminal" rx="10"/>
         <text class="terminal" x="59" y="461">bor</text>
         <rect x="51" y="487" width="50" height="32" rx="10"/>
         <rect x="49" y="485" width="50" height="32" class="terminal" rx="10"/>
         <text class="terminal" x="59" y="505">bxor</text>
         <rect x="51" y="531" width="48" height="32" rx="10"/>
         <rect x="49" y="529" width="48" height="32" class="terminal" rx="10"/>
         <text class="terminal" x="59" y="549">bshl</text>
         <rect x="51" y="575" width="50" height="32" rx="10"/>
         <rect x="49" y="573" width="50" height="32" class="terminal" rx="10"/>
         <text class="terminal" x="59" y="593">bshr</text>
         <rect x="51" y="619" width="58" height="32" rx="10"/>
         <rect x="49" y="617" width="58" height="32" class="terminal" rx="10"/>
         <text class="terminal" x="59" y="637">bshru</text>
         <svg:path xmlns:svg="http://www.w3.org/2000/svg" class="line" d="m17 17 h2 m20 0 h10 m30 0 h10 m0 0 h28 m-98 0 h20 m78 0 h20 m-118 0 q10 0 10 10 m98 0 q0 -10 10 -10 m-108 10 v24 m98 0 v-24 m-98 24 q0 10 10 10 m78 0 q10 0 10 -10 m-88 10 h10 m26 0 h10 m0 0 h32 m-88 -10 v20 m98 0 v-20 m-98 20 v24 m98 0 v-24 m-98 24 q0 10 10 10 m78 0 q10 0 10 -10 m-88 10 h10 m28 0 h10 m0 0 h30 m-88 -10 v20 m98 0 v-20 m-98 20 v24 m98 0 v-24 m-98 24 q0 10 10 10 m78 0 q10 0 10 -10 m-88 10 h10 m28 0 h10 m0 0 h30 m-88 -10 v20 m98 0 v-20 m-98 20 v24 m98 0 v-24 m-98 24 q0 10 10 10 m78 0 q10 0 10 -10 m-88 10 h10 m34 0 h10 m0 0 h24 m-88 -10 v20 m98 0 v-20 m-98 20 v24 m98 0 v-24 m-98 24 q0 10 10 10 m78 0 q10 0 10 -10 m-88 10 h10 m30 0 h10 m0 0 h28 m-88 -10 v20 m98 0 v-20 m-98 20 v24 m98 0 v-24 m-98 24 q0 10 10 10 m78 0 q10 0 10 -10 m-88 10 h10 m48 0 h10 m0 0 h10 m-88 -10 v20 m98 0 v-20 m-98 20 v24 m98 0 v-24 m-98 24 q0 10 10 10 m78 0 q10 0 10 -10 m-88 10 h10 m38 0 h10 m0 0 h20 m-88 -10 v20 m98 0 v-20 m-98 20 v24 m98 0 v-24 m-98 24 q0 10 10 10 m78 0 q10 0 10 -10 m-88 10 h10 m46 0 h10 m0 0 h12 m-88 -10 v20 m98 0 v-20 m-98 20 v24 m98 0 v-24 m-98 24 q0 10 10 10 m78 0 q10 0 10 -10 m-88 10 h10 m52 0 h10 m0 0 h6 m-88 -10 v20 m98 0 v-20 m-98 20 v24 m98 0 v-24 m-98 24 q0 10 10 10 m78 0 q10 0 10 -10 m-88 10 h10 m42 0 h10 m0 0 h16 m-88 -10 v20 m98 0 v-20 m-98 20 v24 m98 0 v-24 m-98 24 q0 10 10 10 m78 0 q10 0 10 -10 m-88 10 h10 m50 0 h10 m0 0 h8 m-88 -10 v20 m98 0 v-20 m-98 20 v24 m98 0 v-24 m-98 24 q0 10 10 10 m78 0 q10 0 10 -10 m-88 10 h10 m48 0 h10 m0 0 h10 m-88 -10 v20 m98 0 v-20 m-98 20 v24 m98 0 v-24 m-98 24 q0 10 10 10 m78 0 q10 0 10 -10 m-88 10 h10 m50 0 h10 m0 0 h8 m-88 -10 v20 m98 0 v-20 m-98 20 v24 m98 0 v-24 m-98 24 q0 10 10 10 m78 0 q10 0 10 -10 m-88 10 h10 m58 0 h10 m23 -616 h-3"/>
         <polygon points="147 17 155 13 155 21"/>
         <polygon points="147 17 139 13 139 21"/></svg>
