<svg xmlns="http://www.w3.org/2000/svg" width="507" height="185">
         <defs>
            <style type="text/css">
    @namespace "http://www.w3.org/2000/svg";
    .line                 {fill: none; stroke: #332900; stroke-width: 1;}
    .bold-line            {stroke: #141000; shape-rendering: crispEdges; stroke-width: 2;}
    .thin-line            {stroke: #1F1800; shape-rendering: crispEdges}
    .filled               {fill: #332900; stroke: none;}
    text.terminal         {font-family: Verdana, Sans-serif;
                            font-size: 12px;
                            fill: #141000;
                            font-weight: bold;
                          }
    text.nonterminal      {font-family: Verdana, Sans-serif;
                            font-size: 12px;
                            fill: #1A1400;
                            font-weight: normal;
                          }
    text.regexp           {font-family: Verdana, Sans-serif;
                            font-size: 12px;
                            fill: #1F1800;
                            font-weight: normal;
                          }
    rect, circle, polygon {fill: #332900; stroke: #332900;}
    rect.terminal         {fill: #FFDB4D; stroke: #332900; stroke-width: 1;}
    rect.nonterminal      {fill: #FFEC9E; stroke: #332900; stroke-width: 1;}
    rect.text             {fill: none; stroke: none;}
    polygon.regexp        {fill: #FFF4C7; stroke: #332900; stroke-width: 1;}
  </style>
         </defs>
         <polygon points="9 61 1 57 1 65"/>
         <polygon points="17 61 9 57 9 65"/>
         <rect x="51" y="47" width="118" height="32" rx="10"/>
         <rect x="49" y="45" width="118" height="32" class="terminal" rx="10"/>
         <text class="terminal" x="59" y="65">choice-domain</text><a xmlns:xlink="http://www.w3.org/1999/xlink" xlink:href="#IDENT" xlink:title="IDENT">
            <rect x="229" y="47" width="58" height="32"/>
            <rect x="227" y="45" width="58" height="32" class="nonterminal"/>
            <text class="nonterminal" x="237" y="65">IDENT</text></a><rect x="229" y="135" width="26" height="32" rx="10"/>
         <rect x="227" y="133" width="26" height="32" class="terminal" rx="10"/>
         <text class="terminal" x="237" y="153">(</text><a xmlns:xlink="http://www.w3.org/1999/xlink" xlink:href="#IDENT" xlink:title="IDENT">
            <rect x="295" y="135" width="58" height="32"/>
            <rect x="293" y="133" width="58" height="32" class="nonterminal"/>
            <text class="nonterminal" x="303" y="153">IDENT</text></a><rect x="295" y="91" width="24" height="32" rx="10"/>
         <rect x="293" y="89" width="24" height="32" class="terminal" rx="10"/>
         <text class="terminal" x="303" y="109">,</text>
         <rect x="393" y="135" width="26" height="32" rx="10"/>
         <rect x="391" y="133" width="26" height="32" class="terminal" rx="10"/>
         <text class="terminal" x="401" y="153">)</text>
         <rect x="209" y="3" width="24" height="32" rx="10"/>
         <rect x="207" y="1" width="24" height="32" class="terminal" rx="10"/>
         <text class="terminal" x="217" y="21">,</text>
<svg:path xmlns:svg="http://www.w3.org/2000/svg" class="line" d="m17 61 h2 m20 0 h10 m118 0 h10 m40 0 h10 m58 0 h10 m0 0 h132 m-230 0 h20 m210 0 h20 m-250 0 q10 0 10 10 m230 0 q0 -10 10 -10 m-240 10 v68 m230 0 v-68 m-230 68 q0 10 10 10 m210 0 q10 0 10 -10 m-220 10 h10 m26 0 h10 m20 0 h10 m58 0 h10 m-98 0 l20 0 m-1 0 q-9 0 -9 -10 l0 -24 q0 -10 10 -10 m78 44 l20 0 m-20 0 q10 0 10 -10 l0 -24 q0 -10 -10 -10 m-78 0 h10 m24 0 h10 m0 0 h34 m20 44 h10 m26 0 h10 m-250 -88 l20 0 m-1 0 q-9 0 -9 -10 l0 -24 q0 -10 10 -10 m250 44 l20 0 m-20 0 q10 0 10 -10 l0 -24 q0 -10 -10 -10 m-250 0 h10 m24 0 h10 m0 0 h206 m-428 44 h20 m428 0 h20 m-468 0 q10 0 10 10 m448 0 q0 -10 10 -10 m-458 10 v102 m448 0 v-102 m-448 102 q0 10 10 10 m428 0 q10 0 10 -10 m-438 10 h10 m0 0 h418 m23 -122 h-3"/>
         <polygon points="497 61 505 57 505 65"/>
         <polygon points="497 61 489 57 489 65"/></svg>
