<svg xmlns="http://www.w3.org/2000/svg" width="375" height="97">
         <defs>
            <style type="text/css">
    @namespace "http://www.w3.org/2000/svg";
    .line                 {fill: none; stroke: #332900; stroke-width: 1;}
    .bold-line            {stroke: #141000; shape-rendering: crispEdges; stroke-width: 2;}
    .thin-line            {stroke: #1F1800; shape-rendering: crispEdges}
    .filled               {fill: #332900; stroke: none;}
    text.terminal         {font-family: Verdana, Sans-serif;
                            font-size: 12px;
                            fill: #141000;
                            font-weight: bold;
                          }
    text.nonterminal      {font-family: Verdana, Sans-serif;
                            font-size: 12px;
                            fill: #1A1400;
                            font-weight: normal;
                          }
    text.regexp           {font-family: Verdana, Sans-serif;
                            font-size: 12px;
                            fill: #1F1800;
                            font-weight: normal;
                          }
    rect, circle, polygon {fill: #332900; stroke: #332900;}
    rect.terminal         {fill: #FFDB4D; stroke: #332900; stroke-width: 1;}
    rect.nonterminal      {fill: #FFEC9E; stroke: #332900; stroke-width: 1;}
    rect.text             {fill: none; stroke: none;}
    polygon.regexp        {fill: #FFF4C7; stroke: #332900; stroke-width: 1;}
  </style>
         </defs>
         <polygon points="9 61 1 57 1 65"/>
         <polygon points="17 61 9 57 9 65"/><a xmlns:xlink="http://www.w3.org/1999/xlink" xlink:href="#IDENT" xlink:title="IDENT">
            <rect x="31" y="47" width="58" height="32"/>
            <rect x="29" y="45" width="58" height="32" class="nonterminal"/>
            <text class="nonterminal" x="39" y="65">IDENT</text></a><rect x="129" y="47" width="30" height="32" rx="10"/>
         <rect x="127" y="45" width="30" height="32" class="terminal" rx="10"/>
         <text class="terminal" x="137" y="65">&lt;</text><a xmlns:xlink="http://www.w3.org/1999/xlink" xlink:href="#IDENT" xlink:title="IDENT">
            <rect x="199" y="47" width="58" height="32"/>
            <rect x="197" y="45" width="58" height="32" class="nonterminal"/>
            <text class="nonterminal" x="207" y="65">IDENT</text></a><rect x="199" y="3" width="24" height="32" rx="10"/>
         <rect x="197" y="1" width="24" height="32" class="terminal" rx="10"/>
         <text class="terminal" x="207" y="21">,</text>
         <rect x="297" y="47" width="30" height="32" rx="10"/>
         <rect x="295" y="45" width="30" height="32" class="terminal" rx="10"/>
         <text class="terminal" x="305" y="65">&gt;</text>
         <svg:path xmlns:svg="http://www.w3.org/2000/svg" class="line" d="m17 61 h2 m0 0 h10 m58 0 h10 m20 0 h10 m30 0 h10 m20 0 h10 m58 0 h10 m-98 0 l20 0 m-1 0 q-9 0 -9 -10 l0 -24 q0 -10 10 -10 m78 44 l20 0 m-20 0 q10 0 10 -10 l0 -24 q0 -10 -10 -10 m-78 0 h10 m24 0 h10 m0 0 h34 m20 44 h10 m30 0 h10 m-238 0 h20 m218 0 h20 m-258 0 q10 0 10 10 m238 0 q0 -10 10 -10 m-248 10 v14 m238 0 v-14 m-238 14 q0 10 10 10 m218 0 q10 0 10 -10 m-228 10 h10 m0 0 h208 m23 -34 h-3"/>
         <polygon points="365 61 373 57 373 65"/>
         <polygon points="365 61 357 57 357 65"/></svg>

