
<svg xmlns="http://www.w3.org/2000/svg" width="379" height="37">
         <defs>
            <style type="text/css">
    @namespace "http://www.w3.org/2000/svg";
    .line                 {fill: none; stroke: #332900; stroke-width: 1;}
    .bold-line            {stroke: #141000; shape-rendering: crispEdges; stroke-width: 2;}
    .thin-line            {stroke: #1F1800; shape-rendering: crispEdges}
    .filled               {fill: #332900; stroke: none;}
    text.terminal         {font-family: Verdana, Sans-serif;
                            font-size: 12px;
                            fill: #141000;
                            font-weight: bold;
                          }
    text.nonterminal      {font-family: Verdana, Sans-serif;
                            font-size: 12px;
                            fill: #1A1400;
                            font-weight: normal;
                          }
    text.regexp           {font-family: Verdana, Sans-serif;
                            font-size: 12px;
                            fill: #1F1800;
                            font-weight: normal;
                          }
    rect, circle, polygon {fill: #332900; stroke: #332900;}
    rect.terminal         {fill: #FFDB4D; stroke: #332900; stroke-width: 1;}
    rect.nonterminal      {fill: #FFEC9E; stroke: #332900; stroke-width: 1;}
    rect.text             {fill: none; stroke: none;}
    polygon.regexp        {fill: #FFF4C7; stroke: #332900; stroke-width: 1;}
  </style>
         </defs>
         <polygon points="9 17 1 13 1 21"/>
         <polygon points="17 17 9 13 9 21"/>
         <rect x="31" y="3" width="46" height="32" rx="10"/>
         <rect x="29" y="1" width="46" height="32" class="terminal" rx="10"/>
         <text class="terminal" x="39" y="21">.init</text><a xmlns:xlink="http://www.w3.org/1999/xlink" xlink:href="#IDENT" xlink:title="IDENT">
            <rect x="97" y="3" width="58" height="32"/>
            <rect x="95" y="1" width="58" height="32" class="nonterminal"/>
            <text class="nonterminal" x="105" y="21">IDENT</text></a><rect x="175" y="3" width="30" height="32" rx="10"/>
         <rect x="173" y="1" width="30" height="32" class="terminal" rx="10"/>
         <text class="terminal" x="183" y="21">=</text><a xmlns:xlink="http://www.w3.org/1999/xlink" xlink:href="#component_type" xlink:title="component_type">
            <rect x="225" y="3" width="126" height="32"/>
            <rect x="223" y="1" width="126" height="32" class="nonterminal"/>
            <text class="nonterminal" x="233" y="21">component_type</text></a><svg:path xmlns:svg="http://www.w3.org/2000/svg" class="line" d="m17 17 h2 m0 0 h10 m46 0 h10 m0 0 h10 m58 0 h10 m0 0 h10 m30 0 h10 m0 0 h10 m126 0 h10 m3 0 h-3"/>
         <polygon points="369 17 377 13 377 21"/>
         <polygon points="369 17 361 13 361 21"/></svg>
