<svg xmlns="http://www.w3.org/2000/svg" width="403" height="203">
         <defs>
            <style type="text/css">
    @namespace "http://www.w3.org/2000/svg";
    .line                 {fill: none; stroke: #332900; stroke-width: 1;}
    .bold-line            {stroke: #141000; shape-rendering: crispEdges; stroke-width: 2;}
    .thin-line            {stroke: #1F1800; shape-rendering: crispEdges}
    .filled               {fill: #332900; stroke: none;}
    text.terminal         {font-family: Verdana, Sans-serif;
                            font-size: 12px;
                            fill: #141000;
                            font-weight: bold;
                          }
    text.nonterminal      {font-family: Verdana, Sans-serif;
                            font-size: 12px;
                            fill: #1A1400;
                            font-weight: normal;
                          }
    text.regexp           {font-family: Verdana, Sans-serif;
                            font-size: 12px;
                            fill: #1F1800;
                            font-weight: normal;
                          }
    rect, circle, polygon {fill: #332900; stroke: #332900;}
    rect.terminal         {fill: #FFDB4D; stroke: #332900; stroke-width: 1;}
    rect.nonterminal      {fill: #FFEC9E; stroke: #332900; stroke-width: 1;}
    rect.text             {fill: none; stroke: none;}
    polygon.regexp        {fill: #FFF4C7; stroke: #332900; stroke-width: 1;}
  </style>
         </defs>
         <polygon points="9 95 1 91 1 99"/>
         <polygon points="17 95 9 91 9 99"/>
         <rect x="71" y="47" width="24" height="32" rx="10"/>
         <rect x="69" y="45" width="24" height="32" class="terminal" rx="10"/>
         <text class="terminal" x="79" y="65">!</text><a xmlns:xlink="http://www.w3.org/1999/xlink" xlink:href="#atom" xlink:title="atom">
            <rect x="155" y="81" width="52" height="32"/>
            <rect x="153" y="79" width="52" height="32" class="nonterminal"/>
            <text class="nonterminal" x="163" y="99">atom</text></a><a xmlns:xlink="http://www.w3.org/1999/xlink" xlink:href="#constraint" xlink:title="constraint">
            <rect x="155" y="125" width="84" height="32"/>
            <rect x="153" y="123" width="84" height="32" class="nonterminal"/>
            <text class="nonterminal" x="163" y="143">constraint</text></a><rect x="155" y="169" width="26" height="32" rx="10"/>
         <rect x="153" y="167" width="26" height="32" class="terminal" rx="10"/>
         <text class="terminal" x="163" y="187">(</text><a xmlns:xlink="http://www.w3.org/1999/xlink" xlink:href="#disjunction" xlink:title="disjunction">
            <rect x="201" y="169" width="88" height="32"/>
            <rect x="199" y="167" width="88" height="32" class="nonterminal"/>
            <text class="nonterminal" x="209" y="187">disjunction</text></a><rect x="309" y="169" width="26" height="32" rx="10"/>
         <rect x="307" y="167" width="26" height="32" class="terminal" rx="10"/>
         <text class="terminal" x="317" y="187">)</text>
         <rect x="51" y="3" width="24" height="32" rx="10"/>
         <rect x="49" y="1" width="24" height="32" class="terminal" rx="10"/>
         <text class="terminal" x="59" y="21">,</text>
         <svg:path xmlns:svg="http://www.w3.org/2000/svg" class="line" d="m17 95 h2 m40 0 h10 m0 0 h34 m-64 0 l20 0 m-1 0 q-9 0 -9 -10 l0 -14 q0 -10 10 -10 m44 34 l20 0 m-20 0 q10 0 10 -10 l0 -14 q0 -10 -10 -10 m-44 0 h10 m24 0 h10 m40 34 h10 m52 0 h10 m0 0 h128 m-220 0 h20 m200 0 h20 m-240 0 q10 0 10 10 m220 0 q0 -10 10 -10 m-230 10 v24 m220 0 v-24 m-220 24 q0 10 10 10 m200 0 q10 0 10 -10 m-210 10 h10 m84 0 h10 m0 0 h96 m-210 -10 v20 m220 0 v-20 m-220 20 v24 m220 0 v-24 m-220 24 q0 10 10 10 m200 0 q10 0 10 -10 m-210 10 h10 m26 0 h10 m0 0 h10 m88 0 h10 m0 0 h10 m26 0 h10 m-324 -88 l20 0 m-1 0 q-9 0 -9 -10 l0 -58 q0 -10 10 -10 m324 78 l20 0 m-20 0 q10 0 10 -10 l0 -58 q0 -10 -10 -10 m-324 0 h10 m24 0 h10 m0 0 h280 m23 78 h-3"/>
         <polygon points="393 95 401 91 401 99"/>
         <polygon points="393 95 385 91 385 99"/>
</svg>
