<svg xmlns="http://www.w3.org/2000/svg" width="555" height="433">
         <defs>
            <style type="text/css">
    @namespace "http://www.w3.org/2000/svg";
    .line                 {fill: none; stroke: #332900; stroke-width: 1;}
    .bold-line            {stroke: #141000; shape-rendering: crispEdges; stroke-width: 2;}
    .thin-line            {stroke: #1F1800; shape-rendering: crispEdges}
    .filled               {fill: #332900; stroke: none;}
    text.terminal         {font-family: Verdana, Sans-serif;
                            font-size: 12px;
                            fill: #141000;
                            font-weight: bold;
                          }
    text.nonterminal      {font-family: Verdana, Sans-serif;
                            font-size: 12px;
                            fill: #1A1400;
                            font-weight: normal;
                          }
    text.regexp           {font-family: Verdana, Sans-serif;
                            font-size: 12px;
                            fill: #1F1800;
                            font-weight: normal;
                          }
    rect, circle, polygon {fill: #332900; stroke: #332900;}
    rect.terminal         {fill: #FFDB4D; stroke: #332900; stroke-width: 1;}
    rect.nonterminal      {fill: #FFEC9E; stroke: #332900; stroke-width: 1;}
    rect.text             {fill: none; stroke: none;}
    polygon.regexp        {fill: #FFF4C7; stroke: #332900; stroke-width: 1;}
  </style>
         </defs>
         <polygon points="9 17 1 13 1 21"/>
         <polygon points="17 17 9 13 9 21"/><a xmlns:xlink="http://www.w3.org/1999/xlink" xlink:href="#argument" xlink:title="argument">
            <rect x="51" y="3" width="82" height="32"/>
            <rect x="49" y="1" width="82" height="32" class="nonterminal"/>
            <text class="nonterminal" x="59" y="21">argument</text></a><rect x="173" y="3" width="30" height="32" rx="10"/>
         <rect x="171" y="1" width="30" height="32" class="terminal" rx="10"/>
         <text class="terminal" x="181" y="21">&lt;</text>
         <rect x="173" y="47" width="30" height="32" rx="10"/>
         <rect x="171" y="45" width="30" height="32" class="terminal" rx="10"/>
         <text class="terminal" x="181" y="65">&gt;</text>
         <rect x="173" y="91" width="40" height="32" rx="10"/>
         <rect x="171" y="89" width="40" height="32" class="terminal" rx="10"/>
         <text class="terminal" x="181" y="109">&lt;=</text>
         <rect x="173" y="135" width="40" height="32" rx="10"/>
         <rect x="171" y="133" width="40" height="32" class="terminal" rx="10"/>
         <text class="terminal" x="181" y="153">&gt;=</text>
         <rect x="173" y="179" width="30" height="32" rx="10"/>
         <rect x="171" y="177" width="30" height="32" class="terminal" rx="10"/>
         <text class="terminal" x="181" y="197">=</text>
         <rect x="173" y="223" width="34" height="32" rx="10"/>
         <rect x="171" y="221" width="34" height="32" class="terminal" rx="10"/>
         <text class="terminal" x="181" y="241">!=</text><a xmlns:xlink="http://www.w3.org/1999/xlink" xlink:href="#argument" xlink:title="argument">
            <rect x="253" y="3" width="82" height="32"/>
            <rect x="251" y="1" width="82" height="32" class="nonterminal"/>
            <text class="nonterminal" x="261" y="21">argument</text></a><rect x="71" y="267" width="62" height="32" rx="10"/>
         <rect x="69" y="265" width="62" height="32" class="terminal" rx="10"/>
         <text class="terminal" x="79" y="285">match</text>
         <rect x="71" y="311" width="76" height="32" rx="10"/>
         <rect x="69" y="309" width="76" height="32" class="terminal" rx="10"/>
         <text class="terminal" x="79" y="329">contains</text>
         <rect x="187" y="267" width="26" height="32" rx="10"/>
         <rect x="185" y="265" width="26" height="32" class="terminal" rx="10"/>
         <text class="terminal" x="195" y="285">(</text><a xmlns:xlink="http://www.w3.org/1999/xlink" xlink:href="#argument" xlink:title="argument">
            <rect x="233" y="267" width="82" height="32"/>
            <rect x="231" y="265" width="82" height="32" class="nonterminal"/>
            <text class="nonterminal" x="241" y="285">argument</text></a><rect x="335" y="267" width="24" height="32" rx="10"/>
         <rect x="333" y="265" width="24" height="32" class="terminal" rx="10"/>
         <text class="terminal" x="343" y="285">,</text><a xmlns:xlink="http://www.w3.org/1999/xlink" xlink:href="#argument" xlink:title="argument">
            <rect x="379" y="267" width="82" height="32"/>
            <rect x="377" y="265" width="82" height="32" class="nonterminal"/>
            <text class="nonterminal" x="387" y="285">argument</text></a><rect x="481" y="267" width="26" height="32" rx="10"/>
         <rect x="479" y="265" width="26" height="32" class="terminal" rx="10"/>
         <text class="terminal" x="489" y="285">)</text>
         <rect x="51" y="355" width="48" height="32" rx="10"/>
         <rect x="49" y="353" width="48" height="32" class="terminal" rx="10"/>
         <text class="terminal" x="59" y="373">true</text>
         <rect x="51" y="399" width="52" height="32" rx="10"/>
         <rect x="49" y="397" width="52" height="32" class="terminal" rx="10"/>
         <text class="terminal" x="59" y="417">false</text>
         <svg:path xmlns:svg="http://www.w3.org/2000/svg" class="line" d="m17 17 h2 m20 0 h10 m82 0 h10 m20 0 h10 m30 0 h10 m0 0 h10 m-80 0 h20 m60 0 h20 m-100 0 q10 0 10 10 m80 0 q0 -10 10 -10 m-90 10 v24 m80 0 v-24 m-80 24 q0 10 10 10 m60 0 q10 0 10 -10 m-70 10 h10 m30 0 h10 m0 0 h10 m-70 -10 v20 m80 0 v-20 m-80 20 v24 m80 0 v-24 m-80 24 q0 10 10 10 m60 0 q10 0 10 -10 m-70 10 h10 m40 0 h10 m-70 -10 v20 m80 0 v-20 m-80 20 v24 m80 0 v-24 m-80 24 q0 10 10 10 m60 0 q10 0 10 -10 m-70 10 h10 m40 0 h10 m-70 -10 v20 m80 0 v-20 m-80 20 v24 m80 0 v-24 m-80 24 q0 10 10 10 m60 0 q10 0 10 -10 m-70 10 h10 m30 0 h10 m0 0 h10 m-70 -10 v20 m80 0 v-20 m-80 20 v24 m80 0 v-24 m-80 24 q0 10 10 10 m60 0 q10 0 10 -10 m-70 10 h10 m34 0 h10 m0 0 h6 m20 -220 h10 m82 0 h10 m0 0 h172 m-496 0 h20 m476 0 h20 m-516 0 q10 0 10 10 m496 0 q0 -10 10 -10 m-506 10 v244 m496 0 v-244 m-496 244 q0 10 10 10 m476 0 q10 0 10 -10 m-466 10 h10 m62 0 h10 m0 0 h14 m-116 0 h20 m96 0 h20 m-136 0 q10 0 10 10 m116 0 q0 -10 10 -10 m-126 10 v24 m116 0 v-24 m-116 24 q0 10 10 10 m96 0 q10 0 10 -10 m-106 10 h10 m76 0 h10 m20 -44 h10 m26 0 h10 m0 0 h10 m82 0 h10 m0 0 h10 m24 0 h10 m0 0 h10 m82 0 h10 m0 0 h10 m26 0 h10 m-486 -10 v20 m496 0 v-20 m-496 20 v68 m496 0 v-68 m-496 68 q0 10 10 10 m476 0 q10 0 10 -10 m-486 10 h10 m48 0 h10 m0 0 h408 m-486 -10 v20 m496 0 v-20 m-496 20 v24 m496 0 v-24 m-496 24 q0 10 10 10 m476 0 q10 0 10 -10 m-486 10 h10 m52 0 h10 m0 0 h404 m23 -396 h-3"/>
         <polygon points="545 17 553 13 553 21"/>
         <polygon points="545 17 537 13 537 21"/>
</svg>
