<svg xmlns="http://www.w3.org/2000/svg" width="845" height="113">
         <defs>
            <style type="text/css">
    @namespace "http://www.w3.org/2000/svg";
    .line                 {fill: none; stroke: #332900; stroke-width: 1;}
    .bold-line            {stroke: #141000; shape-rendering: crispEdges; stroke-width: 2;}
    .thin-line            {stroke: #1F1800; shape-rendering: crispEdges}
    .filled               {fill: #332900; stroke: none;}
    text.terminal         {font-family: Verdana, Sans-serif;
                            font-size: 12px;
                            fill: #141000;
                            font-weight: bold;
                          }
    text.nonterminal      {font-family: Verdana, Sans-serif;
                            font-size: 12px;
                            fill: #1A1400;
                            font-weight: normal;
                          }
    text.regexp           {font-family: Verdana, Sans-serif;
                            font-size: 12px;
                            fill: #1F1800;
                            font-weight: normal;
                          }
    rect, circle, polygon {fill: #332900; stroke: #332900;}
    rect.terminal         {fill: #FFDB4D; stroke: #332900; stroke-width: 1;}
    rect.nonterminal      {fill: #FFEC9E; stroke: #332900; stroke-width: 1;}
    rect.text             {fill: none; stroke: none;}
    polygon.regexp        {fill: #FFF4C7; stroke: #332900; stroke-width: 1;}
  </style>
         </defs>
         <polygon points="9 61 1 57 1 65"/>
         <polygon points="17 61 9 57 9 65"/><a xmlns:xlink="http://www.w3.org/1999/xlink" xlink:href="#directive_qualifier" xlink:title="directive_qualifier">
            <rect x="31" y="47" width="132" height="32"/>
            <rect x="29" y="45" width="132" height="32" class="nonterminal"/>
            <text class="nonterminal" x="39" y="65">directive_qualifier</text></a><a xmlns:xlink="http://www.w3.org/1999/xlink" xlink:href="#qualified_name" xlink:title="qualified_name">
            <rect x="203" y="47" width="118" height="32"/>
            <rect x="201" y="45" width="118" height="32" class="nonterminal"/>
            <text class="nonterminal" x="211" y="65">qualified_name</text></a><rect x="203" y="3" width="24" height="32" rx="10"/>
         <rect x="201" y="1" width="24" height="32" class="terminal" rx="10"/>
         <text class="terminal" x="211" y="21">,</text>
         <rect x="381" y="47" width="26" height="32" rx="10"/>
         <rect x="379" y="45" width="26" height="32" class="terminal" rx="10"/>
         <text class="terminal" x="389" y="65">(</text><a xmlns:xlink="http://www.w3.org/1999/xlink" xlink:href="#IDENT" xlink:title="IDENT">
            <rect x="467" y="47" width="58" height="32"/>
            <rect x="465" y="45" width="58" height="32" class="nonterminal"/>
            <text class="nonterminal" x="475" y="65">IDENT</text></a><rect x="545" y="47" width="30" height="32" rx="10"/>
         <rect x="543" y="45" width="30" height="32" class="terminal" rx="10"/>
         <text class="terminal" x="553" y="65">=</text><a xmlns:xlink="http://www.w3.org/1999/xlink" xlink:href="#directive_value" xlink:title="directive_value">
            <rect x="595" y="47" width="116" height="32"/>
            <rect x="593" y="45" width="116" height="32" class="nonterminal"/>
            <text class="nonterminal" x="603" y="65">directive_value</text></a><rect x="467" y="3" width="24" height="32" rx="10"/>
         <rect x="465" y="1" width="24" height="32" class="terminal" rx="10"/>
         <text class="terminal" x="475" y="21">,</text>
         <rect x="771" y="47" width="26" height="32" rx="10"/>
         <rect x="769" y="45" width="26" height="32" class="terminal" rx="10"/>
         <text class="terminal" x="779" y="65">)</text>
         <svg:path xmlns:svg="http://www.w3.org/2000/svg" class="line" d="m17 61 h2 m0 0 h10 m132 0 h10 m20 0 h10 m118 0 h10 m-158 0 l20 0 m-1 0 q-9 0 -9 -10 l0 -24 q0 -10 10 -10 m138 44 l20 0 m-20 0 q10 0 10 -10 l0 -24 q0 -10 -10 -10 m-138 0 h10 m24 0 h10 m0 0 h94 m40 44 h10 m26 0 h10 m40 0 h10 m58 0 h10 m0 0 h10 m30 0 h10 m0 0 h10 m116 0 h10 m-284 0 l20 0 m-1 0 q-9 0 -9 -10 l0 -24 q0 -10 10 -10 m264 44 l20 0 m-20 0 q10 0 10 -10 l0 -24 q0 -10 -10 -10 m-264 0 h10 m24 0 h10 m0 0 h220 m-304 44 h20 m304 0 h20 m-344 0 q10 0 10 10 m324 0 q0 -10 10 -10 m-334 10 v14 m324 0 v-14 m-324 14 q0 10 10 10 m304 0 q10 0 10 -10 m-314 10 h10 m0 0 h294 m20 -34 h10 m26 0 h10 m-456 0 h20 m436 0 h20 m-476 0 q10 0 10 10 m456 0 q0 -10 10 -10 m-466 10 v30 m456 0 v-30 m-456 30 q0 10 10 10 m436 0 q10 0 10 -10 m-446 10 h10 m0 0 h426 m23 -50 h-3"/>
         <polygon points="835 61 843 57 843 65"/>
         <polygon points="835 61 827 57 827 65"/>
</svg>
