<svg xmlns="http://www.w3.org/2000/svg" width="551" height="141">
         <defs>
            <style type="text/css">
    @namespace "http://www.w3.org/2000/svg";
    .line                 {fill: none; stroke: #332900; stroke-width: 1;}
    .bold-line            {stroke: #141000; shape-rendering: crispEdges; stroke-width: 2;}
    .thin-line            {stroke: #1F1800; shape-rendering: crispEdges}
    .filled               {fill: #332900; stroke: none;}
    text.terminal         {font-family: Verdana, Sans-serif;
                            font-size: 12px;
                            fill: #141000;
                            font-weight: bold;
                          }
    text.nonterminal      {font-family: Verdana, Sans-serif;
                            font-size: 12px;
                            fill: #1A1400;
                            font-weight: normal;
                          }
    text.regexp           {font-family: Verdana, Sans-serif;
                            font-size: 12px;
                            fill: #1F1800;
                            font-weight: normal;
                          }
    rect, circle, polygon {fill: #332900; stroke: #332900;}
    rect.terminal         {fill: #FFDB4D; stroke: #332900; stroke-width: 1;}
    rect.nonterminal      {fill: #FFEC9E; stroke: #332900; stroke-width: 1;}
    rect.text             {fill: none; stroke: none;}
    polygon.regexp        {fill: #FFF4C7; stroke: #332900; stroke-width: 1;}
  </style>
         </defs>
         <polygon points="9 105 1 101 1 109"/>
         <polygon points="17 105 9 101 9 109"/>
         <rect x="31" y="91" width="52" height="32" rx="10"/>
         <rect x="29" y="89" width="52" height="32" class="terminal" rx="10"/>
         <text class="terminal" x="39" y="109">.plan</text><a xmlns:xlink="http://www.w3.org/1999/xlink" xlink:href="#NUMBER" xlink:title="NUMBER">
            <rect x="123" y="91" width="72" height="32"/>
            <rect x="121" y="89" width="72" height="32" class="nonterminal"/>
            <text class="nonterminal" x="131" y="109">NUMBER</text></a><rect x="215" y="91" width="24" height="32" rx="10"/>
         <rect x="213" y="89" width="24" height="32" class="terminal" rx="10"/>
         <text class="terminal" x="223" y="109">:</text>
         <rect x="259" y="91" width="26" height="32" rx="10"/>
         <rect x="257" y="89" width="26" height="32" class="terminal" rx="10"/>
         <text class="terminal" x="267" y="109">(</text><a xmlns:xlink="http://www.w3.org/1999/xlink" xlink:href="#NUMBER" xlink:title="NUMBER">
            <rect x="345" y="91" width="72" height="32"/>
            <rect x="343" y="89" width="72" height="32" class="nonterminal"/>
            <text class="nonterminal" x="353" y="109">NUMBER</text></a><rect x="345" y="47" width="24" height="32" rx="10"/>
         <rect x="343" y="45" width="24" height="32" class="terminal" rx="10"/>
         <text class="terminal" x="353" y="65">,</text>
         <rect x="477" y="91" width="26" height="32" rx="10"/>
         <rect x="475" y="89" width="26" height="32" class="terminal" rx="10"/>
         <text class="terminal" x="485" y="109">)</text>
         <rect x="123" y="3" width="24" height="32" rx="10"/>
         <rect x="121" y="1" width="24" height="32" class="terminal" rx="10"/>
         <text class="terminal" x="131" y="21">,</text>
         <svg:path xmlns:svg="http://www.w3.org/2000/svg" class="line" d="m17 105 h2 m0 0 h10 m52 0 h10 m20 0 h10 m72 0 h10 m0 0 h10 m24 0 h10 m0 0 h10 m26 0 h10 m40 0 h10 m72 0 h10 m-112 0 l20 0 m-1 0 q-9 0 -9 -10 l0 -24 q0 -10 10 -10 m92 44 l20 0 m-20 0 q10 0 10 -10 l0 -24 q0 -10 -10 -10 m-92 0 h10 m24 0 h10 m0 0 h48 m-132 44 h20 m132 0 h20 m-172 0 q10 0 10 10 m152 0 q0 -10 10 -10 m-162 10 v14 m152 0 v-14 m-152 14 q0 10 10 10 m132 0 q10 0 10 -10 m-142 10 h10 m0 0 h122 m20 -34 h10 m26 0 h10 m-420 0 l20 0 m-1 0 q-9 0 -9 -10 l0 -68 q0 -10 10 -10 m400 88 l20 0 m-20 0 q10 0 10 -10 l0 -68 q0 -10 -10 -10 m-400 0 h10 m24 0 h10 m0 0 h356 m23 88 h-3"/>
         <polygon points="541 105 549 101 549 109"/>
         <polygon points="541 105 533 101 533 109"/>
 </svg>
