<svg xmlns="http://www.w3.org/2000/svg" width="735" height="379">
         <defs>
            <style type="text/css">
    @namespace "http://www.w3.org/2000/svg";
    .line                 {fill: none; stroke: #332900; stroke-width: 1;}
    .bold-line            {stroke: #141000; shape-rendering: crispEdges; stroke-width: 2;}
    .thin-line            {stroke: #1F1800; shape-rendering: crispEdges}
    .filled               {fill: #332900; stroke: none;}
    text.terminal         {font-family: Verdana, Sans-serif;
                            font-size: 12px;
                            fill: #141000;
                            font-weight: bold;
                          }
    text.nonterminal      {font-family: Verdana, Sans-serif;
                            font-size: 12px;
                            fill: #1A1400;
                            font-weight: normal;
                          }
    text.regexp           {font-family: Verdana, Sans-serif;
                            font-size: 12px;
                            fill: #1F1800;
                            font-weight: normal;
                          }
    rect, circle, polygon {fill: #332900; stroke: #332900;}
    rect.terminal         {fill: #FFDB4D; stroke: #332900; stroke-width: 1;}
    rect.nonterminal      {fill: #FFEC9E; stroke: #332900; stroke-width: 1;}
    rect.text             {fill: none; stroke: none;}
    polygon.regexp        {fill: #FFF4C7; stroke: #332900; stroke-width: 1;}
  </style>
         </defs>
         <polygon points="9 359 1 355 1 363"/>
         <polygon points="17 359 9 355 9 363"/>
         <rect x="31" y="345" width="52" height="32" rx="10"/>
         <rect x="29" y="343" width="52" height="32" class="terminal" rx="10"/>
         <text class="terminal" x="39" y="363">.decl</text><a xmlns:xlink="http://www.w3.org/1999/xlink" xlink:href="#IDENT" xlink:title="IDENT">
            <rect x="123" y="345" width="58" height="32"/>
            <rect x="121" y="343" width="58" height="32" class="nonterminal"/>
            <text class="nonterminal" x="131" y="363">IDENT</text></a><rect x="123" y="301" width="24" height="32" rx="10"/>
         <rect x="121" y="299" width="24" height="32" class="terminal" rx="10"/>
         <text class="terminal" x="131" y="319">,</text>
         <rect x="221" y="345" width="26" height="32" rx="10"/>
         <rect x="219" y="343" width="26" height="32" class="terminal" rx="10"/>
         <text class="terminal" x="229" y="363">(</text><a xmlns:xlink="http://www.w3.org/1999/xlink" xlink:href="#attribute" xlink:title="attribute">
            <rect x="287" y="345" width="74" height="32"/>
            <rect x="285" y="343" width="74" height="32" class="nonterminal"/>
            <text class="nonterminal" x="295" y="363">attribute</text></a><rect x="287" y="301" width="24" height="32" rx="10"/>
         <rect x="285" y="299" width="24" height="32" class="terminal" rx="10"/>
         <text class="terminal" x="295" y="319">,</text>
         <rect x="401" y="345" width="26" height="32" rx="10"/>
         <rect x="399" y="343" width="26" height="32" class="terminal" rx="10"/>
         <text class="terminal" x="409" y="363">)</text>
         <rect x="467" y="311" width="76" height="32" rx="10"/>
         <rect x="465" y="309" width="76" height="32" class="terminal" rx="10"/>
         <text class="terminal" x="475" y="329">override</text>
         <rect x="467" y="267" width="56" height="32" rx="10"/>
         <rect x="465" y="265" width="56" height="32" class="terminal" rx="10"/>
         <text class="terminal" x="475" y="285">inline</text>
         <rect x="467" y="223" width="82" height="32" rx="10"/>
         <rect x="465" y="221" width="82" height="32" class="terminal" rx="10"/>
         <text class="terminal" x="475" y="241">no_inline</text>
         <rect x="467" y="179" width="60" height="32" rx="10"/>
         <rect x="465" y="177" width="60" height="32" class="terminal" rx="10"/>
         <text class="terminal" x="475" y="197">magic</text>
         <rect x="467" y="135" width="86" height="32" rx="10"/>
         <rect x="465" y="133" width="86" height="32" class="terminal" rx="10"/>
         <text class="terminal" x="475" y="153">no_magic</text>
         <rect x="467" y="91" width="46" height="32" rx="10"/>
         <rect x="465" y="89" width="46" height="32" class="terminal" rx="10"/>
         <text class="terminal" x="475" y="109">brie</text>
         <rect x="467" y="47" width="56" height="32" rx="10"/>
         <rect x="465" y="45" width="56" height="32" class="terminal" rx="10"/>
         <text class="terminal" x="475" y="65">btree</text>
         <rect x="467" y="3" width="54" height="32" rx="10"/>
         <rect x="465" y="1" width="54" height="32" class="terminal" rx="10"/>
         <text class="terminal" x="475" y="21">eqrel</text><a xmlns:xlink="http://www.w3.org/1999/xlink" xlink:href="#choice_domain" xlink:title="choice_domain">
            <rect x="593" y="345" width="114" height="32"/>
            <rect x="591" y="343" width="114" height="32" class="nonterminal"/>
            <text class="nonterminal" x="601" y="363">choice_domain</text></a><path xmlns:svg="http://www.w3.org/2000/svg" class="line" d="m17 359 h2 m0 0 h10 m52 0 h10 m20 0 h10 m58 0 h10 m-98 0 l20 0 m-1 0 q-9 0 -9 -10 l0 -24 q0 -10 10 -10 m78 44 l20 0 m-20 0 q10 0 10 -10 l0 -24 q0 -10 -10 -10 m-78 0 h10 m24 0 h10 m0 0 h34 m20 44 h10 m26 0 h10 m20 0 h10 m74 0 h10 m-114 0 l20 0 m-1 0 q-9 0 -9 -10 l0 -24 q0 -10 10 -10 m94 44 l20 0 m-20 0 q10 0 10 -10 l0 -24 q0 -10 -10 -10 m-94 0 h10 m24 0 h10 m0 0 h50 m20 44 h10 m26 0 h10 m20 0 h10 m0 0 h96 m-126 0 l20 0 m-1 0 q-9 0 -9 -10 l0 -14 q0 -10 10 -10 m106 34 l20 0 m-20 0 q10 0 10 -10 l0 -14 q0 -10 -10 -10 m-106 0 h10 m76 0 h10 m0 0 h10 m-116 10 l0 -44 q0 -10 10 -10 m116 54 l0 -44 q0 -10 -10 -10 m-106 0 h10 m56 0 h10 m0 0 h30 m-116 10 l0 -44 q0 -10 10 -10 m116 54 l0 -44 q0 -10 -10 -10 m-106 0 h10 m82 0 h10 m0 0 h4 m-116 10 l0 -44 q0 -10 10 -10 m116 54 l0 -44 q0 -10 -10 -10 m-106 0 h10 m60 0 h10 m0 0 h26 m-116 10 l0 -44 q0 -10 10 -10 m116 54 l0 -44 q0 -10 -10 -10 m-106 0 h10 m86 0 h10 m-116 10 l0 -44 q0 -10 10 -10 m116 54 l0 -44 q0 -10 -10 -10 m-106 0 h10 m46 0 h10 m0 0 h40 m-116 10 l0 -44 q0 -10 10 -10 m116 54 l0 -44 q0 -10 -10 -10 m-106 0 h10 m56 0 h10 m0 0 h30 m-116 10 l0 -44 q0 -10 10 -10 m116 54 l0 -44 q0 -10 -10 -10 m-106 0 h10 m54 0 h10 m0 0 h32 m20 342 h10 m114 0 h10 m3 0 h-3"/>
         <polygon points="725 359 733 355 733 363"/>
         <polygon points="725 359 717 355 717 363"/></svg>