<svg xmlns="http://www.w3.org/2000/svg" width="725" height="291">
         <defs>
            <style type="text/css">
    @namespace "http://www.w3.org/2000/svg";
    .line                 {fill: none; stroke: #332900; stroke-width: 1;}
    .bold-line            {stroke: #141000; shape-rendering: crispEdges; stroke-width: 2;}
    .thin-line            {stroke: #1F1800; shape-rendering: crispEdges}
    .filled               {fill: #332900; stroke: none;}
    text.terminal         {font-family: Verdana, Sans-serif;
                            font-size: 12px;
                            fill: #141000;
                            font-weight: bold;
                          }
    text.nonterminal      {font-family: Verdana, Sans-serif;
                            font-size: 12px;
                            fill: #1A1400;
                            font-weight: normal;
                          }
    text.regexp           {font-family: Verdana, Sans-serif;
                            font-size: 12px;
                            fill: #1F1800;
                            font-weight: normal;
                          }
    rect, circle, polygon {fill: #332900; stroke: #332900;}
    rect.terminal         {fill: #FFDB4D; stroke: #332900; stroke-width: 1;}
    rect.nonterminal      {fill: #FFEC9E; stroke: #332900; stroke-width: 1;}
    rect.text             {fill: none; stroke: none;}
    polygon.regexp        {fill: #FFF4C7; stroke: #332900; stroke-width: 1;}
  </style>
         </defs>
         <polygon points="9 271 1 267 1 275"/>
         <polygon points="17 271 9 267 9 275"/>
         <rect x="31" y="257" width="52" height="32" rx="10"/>
         <rect x="29" y="255" width="52" height="32" class="terminal" rx="10"/>
         <text class="terminal" x="39" y="275">.decl</text><a xmlns:xlink="http://www.w3.org/1999/xlink" xlink:href="#IDENT" xlink:title="IDENT">
            <rect x="123" y="257" width="58" height="32"/>
            <rect x="121" y="255" width="58" height="32" class="nonterminal"/>
            <text class="nonterminal" x="131" y="275">IDENT</text></a><rect x="123" y="213" width="24" height="32" rx="10"/>
         <rect x="121" y="211" width="24" height="32" class="terminal" rx="10"/>
         <text class="terminal" x="131" y="231">,</text>
         <rect x="221" y="257" width="26" height="32" rx="10"/>
         <rect x="219" y="255" width="26" height="32" class="terminal" rx="10"/>
         <text class="terminal" x="229" y="275">(</text><a xmlns:xlink="http://www.w3.org/1999/xlink" xlink:href="#attribute" xlink:title="attribute">
            <rect x="287" y="257" width="74" height="32"/>
            <rect x="285" y="255" width="74" height="32" class="nonterminal"/>
            <text class="nonterminal" x="295" y="275">attribute</text></a><rect x="287" y="213" width="24" height="32" rx="10"/>
         <rect x="285" y="211" width="24" height="32" class="terminal" rx="10"/>
         <text class="terminal" x="295" y="231">,</text>
         <rect x="401" y="257" width="26" height="32" rx="10"/>
         <rect x="399" y="255" width="26" height="32" class="terminal" rx="10"/>
         <text class="terminal" x="409" y="275">)</text>
         <rect x="467" y="223" width="76" height="32" rx="10"/>
         <rect x="465" y="221" width="76" height="32" class="terminal" rx="10"/>
         <text class="terminal" x="475" y="241">override</text>
         <rect x="467" y="179" width="56" height="32" rx="10"/>
         <rect x="465" y="177" width="56" height="32" class="terminal" rx="10"/>
         <text class="terminal" x="475" y="197">inline</text>
         <rect x="467" y="135" width="60" height="32" rx="10"/>
         <rect x="465" y="133" width="60" height="32" class="terminal" rx="10"/>
         <text class="terminal" x="475" y="153">magic</text>
         <rect x="467" y="91" width="46" height="32" rx="10"/>
         <rect x="465" y="89" width="46" height="32" class="terminal" rx="10"/>
         <text class="terminal" x="475" y="109">brie</text>
         <rect x="467" y="47" width="56" height="32" rx="10"/>
         <rect x="465" y="45" width="56" height="32" class="terminal" rx="10"/>
         <text class="terminal" x="475" y="65">btree</text>
         <rect x="467" y="3" width="54" height="32" rx="10"/>
         <rect x="465" y="1" width="54" height="32" class="terminal" rx="10"/>
         <text class="terminal" x="475" y="21">eqrel</text><a xmlns:xlink="http://www.w3.org/1999/xlink" xlink:href="#choice_domain" xlink:title="choice_domain">
            <rect x="583" y="257" width="114" height="32"/>
            <rect x="581" y="255" width="114" height="32" class="nonterminal"/>
            <text class="nonterminal" x="591" y="275">choice_domain</text></a><svg:path xmlns:svg="http://www.w3.org/2000/svg" class="line" d="m17 271 h2 m0 0 h10 m52 0 h10 m20 0 h10 m58 0 h10 m-98 0 l20 0 m-1 0 q-9 0 -9 -10 l0 -24 q0 -10 10 -10 m78 44 l20 0 m-20 0 q10 0 10 -10 l0 -24 q0 -10 -10 -10 m-78 0 h10 m24 0 h10 m0 0 h34 m20 44 h10 m26 0 h10 m20 0 h10 m74 0 h10 m-114 0 l20 0 m-1 0 q-9 0 -9 -10 l0 -24 q0 -10 10 -10 m94 44 l20 0 m-20 0 q10 0 10 -10 l0 -24 q0 -10 -10 -10 m-94 0 h10 m24 0 h10 m0 0 h50 m20 44 h10 m26 0 h10 m20 0 h10 m0 0 h86 m-116 0 l20 0 m-1 0 q-9 0 -9 -10 l0 -14 q0 -10 10 -10 m96 34 l20 0 m-20 0 q10 0 10 -10 l0 -14 q0 -10 -10 -10 m-96 0 h10 m76 0 h10 m-106 10 l0 -44 q0 -10 10 -10 m106 54 l0 -44 q0 -10 -10 -10 m-96 0 h10 m56 0 h10 m0 0 h20 m-106 10 l0 -44 q0 -10 10 -10 m106 54 l0 -44 q0 -10 -10 -10 m-96 0 h10 m60 0 h10 m0 0 h16 m-106 10 l0 -44 q0 -10 10 -10 m106 54 l0 -44 q0 -10 -10 -10 m-96 0 h10 m46 0 h10 m0 0 h30 m-106 10 l0 -44 q0 -10 10 -10 m106 54 l0 -44 q0 -10 -10 -10 m-96 0 h10 m56 0 h10 m0 0 h20 m-106 10 l0 -44 q0 -10 10 -10 m106 54 l0 -44 q0 -10 -10 -10 m-96 0 h10 m54 0 h10 m0 0 h22 m20 254 h10 m114 0 h10 m3 0 h-3"/>
         <polygon points="715 271 723 267 723 275"/>
         <polygon points="715 271 707 267 707 275"/></svg>
