<svg xmlns="http://www.w3.org/2000/svg" width="505" height="113">
         <defs>
            <style type="text/css">
    @namespace "http://www.w3.org/2000/svg";
    .line                 {fill: none; stroke: #332900; stroke-width: 1;}
    .bold-line            {stroke: #141000; shape-rendering: crispEdges; stroke-width: 2;}
    .thin-line            {stroke: #1F1800; shape-rendering: crispEdges}
    .filled               {fill: #332900; stroke: none;}
    text.terminal         {font-family: Verdana, Sans-serif;
                            font-size: 12px;
                            fill: #141000;
                            font-weight: bold;
                          }
    text.nonterminal      {font-family: Verdana, Sans-serif;
                            font-size: 12px;
                            fill: #1A1400;
                            font-weight: normal;
                          }
    text.regexp           {font-family: Verdana, Sans-serif;
                            font-size: 12px;
                            fill: #1F1800;
                            font-weight: normal;
                          }
    rect, circle, polygon {fill: #332900; stroke: #332900;}
    rect.terminal         {fill: #FFDB4D; stroke: #332900; stroke-width: 1;}
    rect.nonterminal      {fill: #FFEC9E; stroke: #332900; stroke-width: 1;}
    rect.text             {fill: none; stroke: none;}
    polygon.regexp        {fill: #FFF4C7; stroke: #332900; stroke-width: 1;}
  </style>
         </defs>
         <polygon points="9 61 1 57 1 65"/>
         <polygon points="17 61 9 57 9 65"/><a xmlns:xlink="http://www.w3.org/1999/xlink" xlink:href="#atom" xlink:title="atom">
            <rect x="51" y="47" width="52" height="32"/>
            <rect x="49" y="45" width="52" height="32" class="nonterminal"/>
            <text class="nonterminal" x="59" y="65">atom</text></a><rect x="51" y="3" width="24" height="32" rx="10"/>
         <rect x="49" y="1" width="24" height="32" class="terminal" rx="10"/>
         <text class="terminal" x="59" y="21">,</text>
         <rect x="143" y="47" width="30" height="32" rx="10"/>
         <rect x="141" y="45" width="30" height="32" class="terminal" rx="10"/>
         <text class="terminal" x="151" y="65">:-</text><a xmlns:xlink="http://www.w3.org/1999/xlink" xlink:href="#disjunction" xlink:title="disjunction">
            <rect x="193" y="47" width="88" height="32"/>
            <rect x="191" y="45" width="88" height="32" class="nonterminal"/>
            <text class="nonterminal" x="201" y="65">disjunction</text></a><rect x="301" y="47" width="24" height="32" rx="10"/>
         <rect x="299" y="45" width="24" height="32" class="terminal" rx="10"/>
         <text class="terminal" x="309" y="65">.</text><a xmlns:xlink="http://www.w3.org/1999/xlink" xlink:href="#query_plan" xlink:title="query_plan">
            <rect x="365" y="79" width="92" height="32"/>
            <rect x="363" y="77" width="92" height="32" class="nonterminal"/>
            <text class="nonterminal" x="373" y="97">query_plan</text></a><svg:path xmlns:svg="http://www.w3.org/2000/svg" class="line" d="m17 61 h2 m20 0 h10 m52 0 h10 m-92 0 l20 0 m-1 0 q-9 0 -9 -10 l0 -24 q0 -10 10 -10 m72 44 l20 0 m-20 0 q10 0 10 -10 l0 -24 q0 -10 -10 -10 m-72 0 h10 m24 0 h10 m0 0 h28 m20 44 h10 m30 0 h10 m0 0 h10 m88 0 h10 m0 0 h10 m24 0 h10 m20 0 h10 m0 0 h102 m-132 0 h20 m112 0 h20 m-152 0 q10 0 10 10 m132 0 q0 -10 10 -10 m-142 10 v12 m132 0 v-12 m-132 12 q0 10 10 10 m112 0 q10 0 10 -10 m-122 10 h10 m92 0 h10 m23 -32 h-3"/>
         <polygon points="495 61 503 57 503 65"/>
         <polygon points="495 61 487 57 487 65"/>
</svg>
