<svg xmlns="http://www.w3.org/2000/svg" width="597" height="69">
         <defs>
            <style type="text/css">
    @namespace "http://www.w3.org/2000/svg";
    .line                 {fill: none; stroke: #332900; stroke-width: 1;}
    .bold-line            {stroke: #141000; shape-rendering: crispEdges; stroke-width: 2;}
    .thin-line            {stroke: #1F1800; shape-rendering: crispEdges}
    .filled               {fill: #332900; stroke: none;}
    text.terminal         {font-family: Verdana, Sans-serif;
                            font-size: 12px;
                            fill: #141000;
                            font-weight: bold;
                          }
    text.nonterminal      {font-family: Verdana, Sans-serif;
                            font-size: 12px;
                            fill: #1A1400;
                            font-weight: normal;
                          }
    text.regexp           {font-family: Verdana, Sans-serif;
                            font-size: 12px;
                            fill: #1F1800;
                            font-weight: normal;
                          }
    rect, circle, polygon {fill: #332900; stroke: #332900;}
    rect.terminal         {fill: #FFDB4D; stroke: #332900; stroke-width: 1;}
    rect.nonterminal      {fill: #FFEC9E; stroke: #332900; stroke-width: 1;}
    rect.text             {fill: none; stroke: none;}
    polygon.regexp        {fill: #FFF4C7; stroke: #332900; stroke-width: 1;}
  </style>
         </defs>
         <polygon points="9 17 1 13 1 21"/>
         <polygon points="17 17 9 13 9 21"/><a xmlns:xlink="http://www.w3.org/1999/xlink" xlink:href="#atom" xlink:title="atom">
            <rect x="31" y="3" width="52" height="32"/>
            <rect x="29" y="1" width="52" height="32" class="nonterminal"/>
            <text class="nonterminal" x="39" y="21">atom</text></a><rect x="103" y="3" width="40" height="32" rx="10"/>
         <rect x="101" y="1" width="40" height="32" class="terminal" rx="10"/>
         <text class="terminal" x="111" y="21">&lt;=</text><a xmlns:xlink="http://www.w3.org/1999/xlink" xlink:href="#atom" xlink:title="atom">
            <rect x="163" y="3" width="52" height="32"/>
            <rect x="161" y="1" width="52" height="32" class="nonterminal"/>
            <text class="nonterminal" x="171" y="21">atom</text></a><rect x="235" y="3" width="30" height="32" rx="10"/>
         <rect x="233" y="1" width="30" height="32" class="terminal" rx="10"/>
         <text class="terminal" x="243" y="21">:-</text><a xmlns:xlink="http://www.w3.org/1999/xlink" xlink:href="#disjunction" xlink:title="disjunction">
            <rect x="285" y="3" width="88" height="32"/>
            <rect x="283" y="1" width="88" height="32" class="nonterminal"/>
            <text class="nonterminal" x="293" y="21">disjunction</text></a><rect x="393" y="3" width="24" height="32" rx="10"/>
         <rect x="391" y="1" width="24" height="32" class="terminal" rx="10"/>
         <text class="terminal" x="401" y="21">.</text><a xmlns:xlink="http://www.w3.org/1999/xlink" xlink:href="#query_plan" xlink:title="query_plan">
            <rect x="457" y="35" width="92" height="32"/>
            <rect x="455" y="33" width="92" height="32" class="nonterminal"/>
            <text class="nonterminal" x="465" y="53">query_plan</text></a><svg:path xmlns:svg="http://www.w3.org/2000/svg" class="line" d="m17 17 h2 m0 0 h10 m52 0 h10 m0 0 h10 m40 0 h10 m0 0 h10 m52 0 h10 m0 0 h10 m30 0 h10 m0 0 h10 m88 0 h10 m0 0 h10 m24 0 h10 m20 0 h10 m0 0 h102 m-132 0 h20 m112 0 h20 m-152 0 q10 0 10 10 m132 0 q0 -10 10 -10 m-142 10 v12 m132 0 v-12 m-132 12 q0 10 10 10 m112 0 q10 0 10 -10 m-122 10 h10 m92 0 h10 m23 -32 h-3"/>
         <polygon points="587 17 595 13 595 21"/>
         <polygon points="587 17 579 13 579 21"/>
</svg>
