<svg xmlns="http://www.w3.org/2000/svg" width="197" height="257">
         <defs>
            <style type="text/css">
    @namespace "http://www.w3.org/2000/svg";
    .line                 {fill: none; stroke: #332900; stroke-width: 1;}
    .bold-line            {stroke: #141000; shape-rendering: crispEdges; stroke-width: 2;}
    .thin-line            {stroke: #1F1800; shape-rendering: crispEdges}
    .filled               {fill: #332900; stroke: none;}
    text.terminal         {font-family: Verdana, Sans-serif;
                            font-size: 12px;
                            fill: #141000;
                            font-weight: bold;
                          }
    text.nonterminal      {font-family: Verdana, Sans-serif;
                            font-size: 12px;
                            fill: #1A1400;
                            font-weight: normal;
                          }
    text.regexp           {font-family: Verdana, Sans-serif;
                            font-size: 12px;
                            fill: #1F1800;
                            font-weight: normal;
                          }
    rect, circle, polygon {fill: #332900; stroke: #332900;}
    rect.terminal         {fill: #FFDB4D; stroke: #332900; stroke-width: 1;}
    rect.nonterminal      {fill: #FFEC9E; stroke: #332900; stroke-width: 1;}
    rect.text             {fill: none; stroke: none;}
    polygon.regexp        {fill: #FFF4C7; stroke: #332900; stroke-width: 1;}
  </style>
         </defs>
         <polygon points="9 61 1 57 1 65"/>
         <polygon points="17 61 9 57 9 65"/><a xmlns:xlink="http://www.w3.org/1999/xlink" xlink:href="#IDENT" xlink:title="IDENT">
            <rect x="71" y="47" width="58" height="32"/>
            <rect x="69" y="45" width="58" height="32" class="nonterminal"/>
            <text class="nonterminal" x="79" y="65">IDENT</text></a><rect x="71" y="3" width="24" height="32" rx="10"/>
         <rect x="69" y="1" width="24" height="32" class="terminal" rx="10"/>
         <text class="terminal" x="79" y="21">.</text>
         <rect x="51" y="91" width="82" height="32" rx="10"/>
         <rect x="49" y="89" width="82" height="32" class="terminal" rx="10"/>
         <text class="terminal" x="59" y="109">unsigned</text>
         <rect x="51" y="135" width="72" height="32" rx="10"/>
         <rect x="49" y="133" width="72" height="32" class="terminal" rx="10"/>
         <text class="terminal" x="59" y="153">number</text>
         <rect x="51" y="179" width="50" height="32" rx="10"/>
         <rect x="49" y="177" width="50" height="32" class="terminal" rx="10"/>
         <text class="terminal" x="59" y="197">float</text>
         <rect x="51" y="223" width="68" height="32" rx="10"/>
         <rect x="49" y="221" width="68" height="32" class="terminal" rx="10"/>
         <text class="terminal" x="59" y="241">symbol</text>
         <svg:path xmlns:svg="http://www.w3.org/2000/svg" class="line" d="m17 61 h2 m40 0 h10 m58 0 h10 m-98 0 l20 0 m-1 0 q-9 0 -9 -10 l0 -24 q0 -10 10 -10 m78 44 l20 0 m-20 0 q10 0 10 -10 l0 -24 q0 -10 -10 -10 m-78 0 h10 m24 0 h10 m0 0 h34 m-118 44 h20 m118 0 h20 m-158 0 q10 0 10 10 m138 0 q0 -10 10 -10 m-148 10 v24 m138 0 v-24 m-138 24 q0 10 10 10 m118 0 q10 0 10 -10 m-128 10 h10 m82 0 h10 m0 0 h16 m-128 -10 v20 m138 0 v-20 m-138 20 v24 m138 0 v-24 m-138 24 q0 10 10 10 m118 0 q10 0 10 -10 m-128 10 h10 m72 0 h10 m0 0 h26 m-128 -10 v20 m138 0 v-20 m-138 20 v24 m138 0 v-24 m-138 24 q0 10 10 10 m118 0 q10 0 10 -10 m-128 10 h10 m50 0 h10 m0 0 h48 m-128 -10 v20 m138 0 v-20 m-138 20 v24 m138 0 v-24 m-138 24 q0 10 10 10 m118 0 q10 0 10 -10 m-128 10 h10 m68 0 h10 m0 0 h30 m23 -176 h-3"/>
         <polygon points="187 61 195 57 195 65"/>
         <polygon points="187 61 179 57 179 65"/></svg>
