<svg xmlns="http://www.w3.org/2000/svg" width="473" height="257">
         <defs>
            <style type="text/css">
    @namespace "http://www.w3.org/2000/svg";
    .line                 {fill: none; stroke: #332900; stroke-width: 1;}
    .bold-line            {stroke: #141000; shape-rendering: crispEdges; stroke-width: 2;}
    .thin-line            {stroke: #1F1800; shape-rendering: crispEdges}
    .filled               {fill: #332900; stroke: none;}
    text.terminal         {font-family: Verdana, Sans-serif;
                            font-size: 12px;
                            fill: #141000;
                            font-weight: bold;
                          }
    text.nonterminal      {font-family: Verdana, Sans-serif;
                            font-size: 12px;
                            fill: #1A1400;
                            font-weight: normal;
                          }
    text.regexp           {font-family: Verdana, Sans-serif;
                            font-size: 12px;
                            fill: #1F1800;
                            font-weight: normal;
                          }
    rect, circle, polygon {fill: #332900; stroke: #332900;}
    rect.terminal         {fill: #FFDB4D; stroke: #332900; stroke-width: 1;}
    rect.nonterminal      {fill: #FFEC9E; stroke: #332900; stroke-width: 1;}
    rect.text             {fill: none; stroke: none;}
    polygon.regexp        {fill: #FFF4C7; stroke: #332900; stroke-width: 1;}
  </style>
         </defs>
         <polygon points="9 17 1 13 1 21"/>
         <polygon points="17 17 9 13 9 21"/>
         <rect x="31" y="3" width="54" height="32" rx="10"/>
         <rect x="29" y="1" width="54" height="32" class="terminal" rx="10"/>
         <text class="terminal" x="39" y="21">.type</text><a xmlns:xlink="http://www.w3.org/1999/xlink" xlink:href="#IDENT" xlink:title="IDENT">
            <rect x="105" y="3" width="58" height="32"/>
            <rect x="103" y="1" width="58" height="32" class="nonterminal"/>
            <text class="nonterminal" x="113" y="21">IDENT</text></a><rect x="203" y="3" width="34" height="32" rx="10"/>
         <rect x="201" y="1" width="34" height="32" class="terminal" rx="10"/>
         <text class="terminal" x="211" y="21">&lt;:</text><a xmlns:xlink="http://www.w3.org/1999/xlink" xlink:href="#type_name" xlink:title="type_name">
            <rect x="257" y="3" width="92" height="32"/>
            <rect x="255" y="1" width="92" height="32" class="nonterminal"/>
            <text class="nonterminal" x="265" y="21">type_name</text></a><rect x="203" y="91" width="30" height="32" rx="10"/>
         <rect x="201" y="89" width="30" height="32" class="terminal" rx="10"/>
         <text class="terminal" x="211" y="109">=</text><a xmlns:xlink="http://www.w3.org/1999/xlink" xlink:href="#type_name" xlink:title="type_name">
            <rect x="293" y="91" width="92" height="32"/>
            <rect x="291" y="89" width="92" height="32" class="nonterminal"/>
            <text class="nonterminal" x="301" y="109">type_name</text></a><rect x="293" y="47" width="26" height="32" rx="10"/>
         <rect x="291" y="45" width="26" height="32" class="terminal" rx="10"/>
         <text class="terminal" x="301" y="65">|</text><a xmlns:xlink="http://www.w3.org/1999/xlink" xlink:href="#record_list" xlink:title="record_list">
            <rect x="273" y="135" width="86" height="32"/>
            <rect x="271" y="133" width="86" height="32" class="nonterminal"/>
            <text class="nonterminal" x="281" y="153">record_list</text></a><a xmlns:xlink="http://www.w3.org/1999/xlink" xlink:href="#adt_branch" xlink:title="adt_branch">
            <rect x="293" y="223" width="92" height="32"/>
            <rect x="291" y="221" width="92" height="32" class="nonterminal"/>
            <text class="nonterminal" x="301" y="241">adt_branch</text></a><rect x="293" y="179" width="26" height="32" rx="10"/>
         <rect x="291" y="177" width="26" height="32" class="terminal" rx="10"/>
         <text class="terminal" x="301" y="197">|</text>
         <svg:path xmlns:svg="http://www.w3.org/2000/svg" class="line" d="m17 17 h2 m0 0 h10 m54 0 h10 m0 0 h10 m58 0 h10 m20 0 h10 m34 0 h10 m0 0 h10 m92 0 h10 m0 0 h76 m-262 0 h20 m242 0 h20 m-282 0 q10 0 10 10 m262 0 q0 -10 10 -10 m-272 10 v68 m262 0 v-68 m-262 68 q0 10 10 10 m242 0 q10 0 10 -10 m-252 10 h10 m30 0 h10 m40 0 h10 m92 0 h10 m-132 0 l20 0 m-1 0 q-9 0 -9 -10 l0 -24 q0 -10 10 -10 m112 44 l20 0 m-20 0 q10 0 10 -10 l0 -24 q0 -10 -10 -10 m-112 0 h10 m26 0 h10 m0 0 h66 m-152 44 h20 m152 0 h20 m-192 0 q10 0 10 10 m172 0 q0 -10 10 -10 m-182 10 v24 m172 0 v-24 m-172 24 q0 10 10 10 m152 0 q10 0 10 -10 m-162 10 h10 m86 0 h10 m0 0 h46 m-162 -10 v20 m172 0 v-20 m-172 20 v68 m172 0 v-68 m-172 68 q0 10 10 10 m152 0 q10 0 10 -10 m-142 10 h10 m92 0 h10 m-132 0 l20 0 m-1 0 q-9 0 -9 -10 l0 -24 q0 -10 10 -10 m112 44 l20 0 m-20 0 q10 0 10 -10 l0 -24 q0 -10 -10 -10 m-112 0 h10 m26 0 h10 m0 0 h66 m63 -176 h-3"/>
         <polygon points="463 17 471 13 471 21"/>
         <polygon points="463 17 455 13 455 21"/>
</svg>
